Mirza-Medium - With Production Names.ufo
<glyph name="uni0603" format="1">
  <advance width="600"/>
  <unicode hex="0603"/>
  <outline>
    <contour>
      <point x="-83" y="-99"/>
      <point x="-49" y="-141"/>
      <point x="-9" y="-172" type="curve"/>
      <point x="35" y="-169"/>
      <point x="202" y="-169"/>
      <point x="602" y="-169" type="curve" smooth="yes"/>
      <point x="651" y="-169"/>
      <point x="681" y="-147"/>
      <point x="693" y="-108" type="curve"/>
      <point x="699" y="-126"/>
      <point x="712" y="-140"/>
      <point x="733" y="-147" type="curve"/>
      <point x="724" y="-186" type="line"/>
      <point x="762" y="-186" type="line"/>
      <point x="770" y="-160" type="line"/>
      <point x="793" y="-165"/>
      <point x="817" y="-165"/>
      <point x="853" y="-165" type="curve" smooth="yes"/>
      <point x="916" y="-165"/>
      <point x="990" y="-138"/>
      <point x="1045" y="-95" type="curve" smooth="yes"/>
      <point x="1074" y="-73"/>
      <point x="1098" y="-47"/>
      <point x="1114" y="-21" type="curve" smooth="yes"/>
      <point x="1131" y="9"/>
      <point x="1141" y="41"/>
      <point x="1141" y="65" type="curve" smooth="yes"/>
      <point x="1141" y="86"/>
      <point x="1131" y="115"/>
      <point x="1102" y="138" type="curve" smooth="yes"/>
      <point x="1081" y="154"/>
      <point x="1051" y="166"/>
      <point x="1027" y="166" type="curve" smooth="yes"/>
      <point x="966" y="166"/>
      <point x="895" y="105"/>
      <point x="853" y="61" type="curve" smooth="yes"/>
      <point x="806" y="10"/>
      <point x="771" y="-44"/>
      <point x="763" y="-57" type="curve"/>
      <point x="747" y="-55"/>
      <point x="735" y="-49"/>
      <point x="725" y="-37" type="curve"/>
      <point x="709" y="-19"/>
      <point x="708" y="8"/>
      <point x="714" y="45" type="curve"/>
      <point x="682" y="31" type="line"/>
      <point x="679" y="8"/>
      <point x="673" y="-10"/>
      <point x="662" y="-26" type="curve"/>
      <point x="649" y="-45"/>
      <point x="632" y="-57"/>
      <point x="603" y="-57" type="curve" smooth="yes"/>
      <point x="348" y="-56"/>
      <point x="-50" y="-54"/>
      <point x="-111" y="-45" type="curve"/>
    </contour>
    <contour>
      <point x="829" y="-33"/>
      <point x="853" y="-3"/>
      <point x="873" y="18" type="curve" smooth="yes"/>
      <point x="911" y="56"/>
      <point x="944" y="78"/>
      <point x="985" y="78" type="curve" smooth="yes"/>
      <point x="1018" y="78"/>
      <point x="1041" y="61"/>
      <point x="1054" y="46" type="curve"/>
      <point x="1065" y="34"/>
      <point x="1070" y="22"/>
      <point x="1075" y="5" type="curve"/>
      <point x="1060" y="-12"/>
      <point x="1044" y="-25"/>
      <point x="1014" y="-38" type="curve" smooth="yes"/>
      <point x="989" y="-49"/>
      <point x="957" y="-57"/>
      <point x="918" y="-57" type="curve" smooth="yes"/>
      <point x="812" y="-57" type="line"/>
    </contour>
  </outline>
</glyph>
<glyph name="uni060B" format="1">
  <advance width="333"/>
  <unicode hex="060B"/>
  <outline>
    <contour>
      <point x="260" y="358"/>
      <point x="222" y="440"/>
      <point x="157" y="440" type="curve" smooth="yes"/>
      <point x="118" y="440"/>
      <point x="92" y="410"/>
      <point x="78" y="385" type="curve" smooth="yes"/>
      <point x="60" y="354"/>
      <point x="49" y="313"/>
      <point x="49" y="278" type="curve" smooth="yes"/>
      <point x="49" y="245"/>
      <point x="60" y="221"/>
      <point x="78" y="205" type="curve"/>
      <point x="92" y="192"/>
      <point x="114" y="182"/>
      <point x="149" y="182" type="curve" smooth="yes"/>
      <point x="167" y="182"/>
      <point x="198" y="185"/>
      <point x="219" y="202" type="curve"/>
      <point x="218" y="180"/>
      <point x="206" y="156"/>
      <point x="190" y="142" type="curve" smooth="yes"/>
      <point x="171" y="125"/>
      <point x="140" y="112"/>
      <point x="88" y="112" type="curve" smooth="yes"/>
      <point x="-74" y="112" type="line"/>
      <point x="-73" y="0" type="line"/>
      <point x="48" y="0" type="line" smooth="yes"/>
      <point x="101" y="0"/>
      <point x="152" y="7"/>
      <point x="192" y="39" type="curve" smooth="yes"/>
      <point x="220" y="62"/>
      <point x="241" y="97"/>
      <point x="255" y="144" type="curve" smooth="yes"/>
      <point x="267" y="186"/>
      <point x="271" y="235"/>
      <point x="267" y="278" type="curve" smooth="yes"/>
    </contour>
    <contour>
      <point x="199" y="279"/>
      <point x="181" y="266"/>
      <point x="149" y="266" type="curve" smooth="yes"/>
      <point x="97" y="266"/>
      <point x="91" y="299"/>
      <point x="91" y="311" type="curve" smooth="yes"/>
      <point x="91" y="329"/>
      <point x="105" y="363"/>
      <point x="142" y="363" type="curve" smooth="yes"/>
      <point x="182" y="363"/>
      <point x="200" y="323"/>
      <point x="208" y="288" type="curve"/>
    </contour>
    <component base="uni0656" xOffset="116" yOffset="237" xScale="1.25" yScale="1.25"/>
    <component base="uniFBB2" xOffset="156" yOffset="-194"/>
  </outline>
</glyph>
<glyph name="uni06E9" format="1">
  <advance width="573"/>
  <unicode hex="06E9"/>
  <outline>
    <contour>
      <point x="513" y="357"/>
      <point x="479" y="390"/>
      <point x="448" y="420" type="curve"/>
      <point x="287" y="581" type="line"/>
      <point x="125" y="420" type="line"/>
      <point x="94" y="390"/>
      <point x="60" y="357"/>
      <point x="60" y="298" type="curve" smooth="yes"/>
      <point x="60" y="235"/>
      <point x="99" y="198"/>
      <point x="103" y="194" type="curve"/>
      <point x="103" y="54" type="line"/>
      <point x="43" y="1" type="line"/>
      <point x="530" y="1" type="line"/>
      <point x="470" y="56" type="line"/>
      <point x="470" y="195" type="line"/>
      <point x="474" y="199"/>
      <point x="513" y="235"/>
      <point x="513" y="298" type="curve" smooth="yes"/>
    </contour>
    <contour>
      <point x="457" y="250"/>
      <point x="424" y="229"/>
      <point x="416" y="223" type="curve"/>
      <point x="416" y="56" type="line"/>
      <point x="158" y="56" type="line"/>
      <point x="158" y="223" type="line"/>
      <point x="150" y="229"/>
      <point x="116" y="249"/>
      <point x="116" y="297" type="curve" smooth="yes"/>
      <point x="116" y="319"/>
      <point x="120" y="336"/>
      <point x="144" y="359" type="curve" smooth="yes"/>
      <point x="287" y="502" type="line"/>
      <point x="430" y="359" type="line" smooth="yes"/>
      <point x="453" y="336"/>
      <point x="457" y="319"/>
      <point x="457" y="297" type="curve" smooth="yes"/>
    </contour>
    <contour>
      <point x="413" y="313"/>
      <point x="403" y="324"/>
      <point x="398" y="329" type="curve" smooth="yes"/>
      <point x="287" y="439" type="line"/>
      <point x="175" y="329" type="line" smooth="yes"/>
      <point x="170" y="324"/>
      <point x="160" y="313"/>
      <point x="160" y="295" type="curve" smooth="yes"/>
      <point x="160" y="276"/>
      <point x="170" y="268"/>
      <point x="176" y="264" type="curve"/>
      <point x="202" y="245" type="line"/>
      <point x="202" y="101" type="line"/>
      <point x="371" y="101" type="line"/>
      <point x="371" y="245" type="line"/>
      <point x="397" y="264" type="line"/>
      <point x="403" y="268"/>
      <point x="413" y="276"/>
      <point x="413" y="295" type="curve" smooth="yes"/>
    </contour>
    <contour>
      <point x="386" y="293"/>
      <point x="383" y="288"/>
      <point x="379" y="285" type="curve"/>
      <point x="344" y="259" type="line"/>
      <point x="344" y="129" type="line"/>
      <point x="229" y="129" type="line"/>
      <point x="229" y="259" type="line"/>
      <point x="194" y="285" type="line"/>
      <point x="191" y="288"/>
      <point x="187" y="292"/>
      <point x="187" y="296" type="curve" smooth="yes"/>
      <point x="187" y="302"/>
      <point x="191" y="306"/>
      <point x="194" y="309" type="curve" smooth="yes"/>
      <point x="287" y="401" type="line"/>
      <point x="378" y="309" type="line" smooth="yes"/>
      <point x="382" y="306"/>
      <point x="386" y="302"/>
      <point x="386" y="296" type="curve" smooth="yes"/>
    </contour>
  </outline>
</glyph>
<glyph name="uni08E4" format="1">
  <advance width="0"/>
  <unicode hex="08E4"/>
  <outline>
    <contour>
      <point x="13" y="862" type="line"/>
      <point x="18" y="858"/>
      <point x="23" y="851"/>
      <point x="25" y="846" type="curve" smooth="yes"/>
      <point x="25" y="842"/>
      <point x="27" y="829"/>
      <point x="0" y="810" type="curve" smooth="yes"/>
      <point x="-11" y="803"/>
      <point x="-32" y="793"/>
      <point x="-43" y="779" type="curve" smooth="yes"/>
      <point x="-50" y="769"/>
      <point x="-54" y="757"/>
      <point x="-53" y="745" type="curve" smooth="yes"/>
      <point x="-52" y="728"/>
      <point x="-46" y="717"/>
      <point x="-21" y="699" type="curve"/>
      <point x="-15" y="712" type="line"/>
      <point x="-20" y="716"/>
      <point x="-25" y="721"/>
      <point x="-27" y="729" type="curve" smooth="yes"/>
      <point x="-31" y="742"/>
      <point x="-16" y="756"/>
      <point x="-3" y="764" type="curve" smooth="yes"/>
      <point x="6" y="769"/>
      <point x="31" y="781"/>
      <point x="40" y="794" type="curve" smooth="yes"/>
      <point x="47" y="803"/>
      <point x="52" y="816"/>
      <point x="51" y="829" type="curve" smooth="yes"/>
      <point x="51" y="846"/>
      <point x="44" y="855"/>
      <point x="18" y="875" type="curve"/>
    </contour>
    <contour>
      <point x="2" y="875" type="move" name="top"/>
    </contour>
    <contour>
      <point x="2" y="680" type="move" name="_top"/>
    </contour>
  </outline>
</glyph>
<glyph name="uni25A1" format="1">
  <advance width="428"/>
  <unicode hex="25A1"/>
  <outline>
    <contour>
      <point x="384" y="407" type="line"/>
      <point x="43" y="407" type="line"/>
      <point x="43" y="66" type="line"/>
      <point x="384" y="66" type="line"/>
    </contour>
    <contour>
      <point x="88" y="362" type="line"/>
      <point x="340" y="362" type="line"/>
      <point x="340" y="111" type="line"/>
      <point x="88" y="111" type="line"/>
    </contour>
  </outline>
</glyph>
<glyph name="uniFC18" format="1">
  <advance width="699"/>
  <unicode hex="FC18"/>
  <outline>
    <contour>
      <point x="541" y="279"/>
      <point x="479" y="304"/>
      <point x="428" y="331" type="curve" smooth="yes"/>
      <point x="396" y="348"/>
      <point x="362" y="364"/>
      <point x="326" y="364" type="curve" smooth="yes"/>
      <point x="308" y="364"/>
      <point x="290" y="359"/>
      <point x="273" y="351" type="curve" smooth="yes"/>
      <point x="248" y="338"/>
      <point x="228" y="315"/>
      <point x="210" y="282" type="curve"/>
      <point x="225" y="259" type="line"/>
      <point x="246" y="280"/>
      <point x="263" y="289"/>
      <point x="295" y="289" type="curve" smooth="yes"/>
      <point x="325" y="289"/>
      <point x="364" y="265"/>
      <point x="403" y="244" type="curve"/>
      <point x="358" y="243"/>
      <point x="309" y="237"/>
      <point x="268" y="222" type="curve" smooth="yes"/>
      <point x="230" y="207"/>
      <point x="207" y="191"/>
      <point x="183" y="168" type="curve"/>
      <point x="174" y="152"/>
      <point x="162" y="134"/>
      <point x="158" y="113" type="curve"/>
      <point x="121" y="102"/>
      <point x="94" y="83"/>
      <point x="77" y="55" type="curve" smooth="yes"/>
      <point x="56" y="24"/>
      <point x="48" y="-19"/>
      <point x="56" y="-69" type="curve" smooth="yes"/>
      <point x="66" y="-134"/>
      <point x="73" y="-186"/>
      <point x="79" y="-221" type="curve" smooth="yes"/>
      <point x="90" y="-308"/>
      <point x="95" y="-352"/>
      <point x="100" y="-390" type="curve"/>
      <point x="140" y="-377" type="line"/>
      <point x="139" y="-299"/>
      <point x="136" y="-229"/>
      <point x="129" y="-171" type="curve" smooth="yes"/>
      <point x="126" y="-138"/>
      <point x="115" y="-49"/>
      <point x="107" y="5" type="curve"/>
      <point x="119" y="24"/>
      <point x="166" y="37"/>
      <point x="224" y="35" type="curve" smooth="yes"/>
      <point x="264" y="33"/>
      <point x="290" y="25"/>
      <point x="324" y="15" type="curve"/>
      <point x="348" y="49"/>
      <point x="356" y="71"/>
      <point x="368" y="105" type="curve"/>
      <point x="331" y="141"/>
      <point x="279" y="152"/>
      <point x="257" y="158" type="curve"/>
      <point x="289" y="175"/>
      <point x="352" y="199"/>
      <point x="437" y="199" type="curve" smooth="yes"/>
      <point x="500" y="199"/>
      <point x="552" y="190"/>
      <point x="584" y="181" type="curve"/>
      <point x="611" y="208"/>
      <point x="623" y="227"/>
      <point x="642" y="264" type="curve"/>
    </contour>
    <contour>
      <point x="350" y="0" type="move" name="caret_1"/>
    </contour>
    <contour>
      <point x="404" y="-7" type="move" name="bottom_1"/>
    </contour>
    <contour>
      <point x="346" y="394" type="move" name="top_1"/>
    </contour>
    <contour>
      <point x="82" y="242" type="move" name="top_2"/>
    </contour>
    <contour>
      <point x="120" y="-413" type="move" name="bottom_2"/>
    </contour>
  </outline>
</glyph>
<glyph name="uniFC1F" format="1">
  <advance width="840"/>
  <unicode hex="FC1F"/>
  <outline>
    <contour>
      <point x="721" y="261"/>
      <point x="705" y="240"/>
      <point x="691" y="217" type="curve"/>
      <point x="737" y="153" type="line"/>
      <point x="722" y="117"/>
      <point x="708" y="108"/>
      <point x="675" y="108" type="curve" smooth="yes"/>
      <point x="656" y="108"/>
      <point x="634" y="111"/>
      <point x="619" y="127" type="curve"/>
      <point x="606" y="141"/>
      <point x="603" y="161"/>
      <point x="604" y="179" type="curve"/>
      <point x="604" y="189"/>
      <point x="605" y="198"/>
      <point x="606" y="207" type="curve"/>
      <point x="575" y="192" type="line"/>
      <point x="574" y="185"/>
      <point x="573" y="171"/>
      <point x="569" y="157" type="curve" smooth="yes"/>
      <point x="560" y="132"/>
      <point x="544" y="107"/>
      <point x="490" y="107" type="curve" smooth="yes"/>
      <point x="438" y="107"/>
      <point x="413" y="132"/>
      <point x="386" y="159" type="curve" smooth="yes"/>
      <point x="367" y="179"/>
      <point x="344" y="200"/>
      <point x="311" y="200" type="curve" smooth="yes"/>
      <point x="273" y="200"/>
      <point x="229" y="169"/>
      <point x="201" y="129" type="curve" smooth="yes"/>
      <point x="177" y="96"/>
      <point x="160" y="62"/>
      <point x="153" y="19" type="curve"/>
      <point x="117" y="0"/>
      <point x="98" y="-12"/>
      <point x="78" y="-45" type="curve" smooth="yes"/>
      <point x="59" y="-73"/>
      <point x="47" y="-113"/>
      <point x="55" y="-164" type="curve" smooth="yes"/>
      <point x="87" y="-361"/>
      <point x="94" y="-440"/>
      <point x="98" y="-485" type="curve"/>
      <point x="141" y="-471" type="line"/>
      <point x="140" y="-413"/>
      <point x="133" y="-324"/>
      <point x="123" y="-221" type="curve" smooth="yes"/>
      <point x="118" y="-169"/>
      <point x="114" y="-140"/>
      <point x="107" y="-95" type="curve"/>
      <point x="129" y="-74"/>
      <point x="149" y="-59"/>
      <point x="206" y="-59" type="curve" smooth="yes"/>
      <point x="249" y="-59"/>
      <point x="283" y="-67"/>
      <point x="316" y="-77" type="curve"/>
      <point x="337" y="-49"/>
      <point x="349" y="-24"/>
      <point x="360" y="8" type="curve"/>
      <point x="342" y="29"/>
      <point x="283" y="66"/>
      <point x="223" y="75" type="curve"/>
      <point x="240" y="98"/>
      <point x="265" y="118"/>
      <point x="302" y="118" type="curve"/>
      <point x="341" y="118"/>
      <point x="361" y="94"/>
      <point x="384" y="64" type="curve" smooth="yes"/>
      <point x="405" y="36"/>
      <point x="431" y="0"/>
      <point x="491" y="0" type="curve" smooth="yes"/>
      <point x="551" y="0"/>
      <point x="577" y="40"/>
      <point x="585" y="68" type="curve"/>
      <point x="588" y="45"/>
      <point x="614" y="9"/>
      <point x="669" y="9" type="curve" smooth="yes"/>
      <point x="708" y="9"/>
      <point x="736" y="27"/>
      <point x="755" y="57" type="curve" smooth="yes"/>
      <point x="779" y="94"/>
      <point x="783" y="139"/>
      <point x="783" y="157" type="curve" smooth="yes"/>
      <point x="783" y="206"/>
      <point x="760" y="256"/>
      <point x="738" y="279" type="curve"/>
    </contour>
    <contour>
      <point x="418" y="0" type="move" name="caret_1"/>
    </contour>
    <contour>
      <point x="581" y="-27" type="move" name="bottom_1"/>
    </contour>
    <contour>
      <point x="583" y="254" type="move" name="top_1"/>
    </contour>
    <contour>
      <point x="167" y="200" type="move" name="top_2"/>
    </contour>
    <contour>
      <point x="120" y="-508" type="move" name="bottom_2"/>
    </contour>
  </outline>
</glyph>
<glyph name="uniFC21" format="1">
  <advance width="865"/>
  <unicode hex="FC21"/>
  <outline>
    <contour>
      <point x="808" y="262"/>
      <point x="799" y="291"/>
      <point x="770" y="314" type="curve" smooth="yes"/>
      <point x="748" y="330"/>
      <point x="718" y="342"/>
      <point x="692" y="342" type="curve" smooth="yes"/>
      <point x="633" y="342"/>
      <point x="563" y="282"/>
      <point x="521" y="236" type="curve" smooth="yes"/>
      <point x="479" y="192"/>
      <point x="448" y="144"/>
      <point x="430" y="120" type="curve"/>
      <point x="408" y="124"/>
      <point x="393" y="141"/>
      <point x="375" y="167" type="curve" smooth="yes"/>
      <point x="359" y="186"/>
      <point x="345" y="201"/>
      <point x="312" y="201" type="curve" smooth="yes"/>
      <point x="290" y="201"/>
      <point x="271" y="193"/>
      <point x="251" y="180" type="curve" smooth="yes"/>
      <point x="233" y="169"/>
      <point x="216" y="151"/>
      <point x="201" y="130" type="curve" smooth="yes"/>
      <point x="191" y="115"/>
      <point x="180" y="96"/>
      <point x="172" y="76" type="curve" smooth="yes"/>
      <point x="164" y="56"/>
      <point x="159" y="35"/>
      <point x="160" y="21" type="curve"/>
      <point x="122" y="2"/>
      <point x="99" y="-19"/>
      <point x="83" y="-45" type="curve" smooth="yes"/>
      <point x="64" y="-73"/>
      <point x="52" y="-113"/>
      <point x="60" y="-164" type="curve" smooth="yes"/>
      <point x="92" y="-361"/>
      <point x="99" y="-440"/>
      <point x="103" y="-485" type="curve"/>
      <point x="146" y="-471" type="line"/>
      <point x="144" y="-393"/>
      <point x="137" y="-306"/>
      <point x="128" y="-221" type="curve" smooth="yes"/>
      <point x="123" y="-169"/>
      <point x="119" y="-140"/>
      <point x="112" y="-95" type="curve"/>
      <point x="134" y="-74"/>
      <point x="155" y="-61"/>
      <point x="212" y="-61" type="curve" smooth="yes"/>
      <point x="255" y="-61"/>
      <point x="291" y="-69"/>
      <point x="325" y="-78" type="curve"/>
      <point x="345" y="-50"/>
      <point x="358" y="-25"/>
      <point x="368" y="7" type="curve"/>
      <point x="350" y="25"/>
      <point x="286" y="64"/>
      <point x="225" y="74" type="curve"/>
      <point x="240" y="95"/>
      <point x="269" y="118"/>
      <point x="308" y="118" type="curve" smooth="yes"/>
      <point x="354" y="118"/>
      <point x="375" y="89"/>
      <point x="398" y="61" type="curve" smooth="yes"/>
      <point x="420" y="35"/>
      <point x="445" y="12"/>
      <point x="506" y="12" type="curve"/>
      <point x="585" y="13"/>
      <point x="663" y="42"/>
      <point x="713" y="81" type="curve" smooth="yes"/>
      <point x="740" y="101"/>
      <point x="766" y="129"/>
      <point x="781" y="155" type="curve" smooth="yes"/>
      <point x="799" y="185"/>
      <point x="808" y="217"/>
      <point x="808" y="239" type="curve" smooth="yes"/>
    </contour>
    <contour>
      <point x="729" y="165"/>
      <point x="712" y="150"/>
      <point x="682" y="138" type="curve" smooth="yes"/>
      <point x="657" y="127"/>
      <point x="625" y="119"/>
      <point x="586" y="119" type="curve" smooth="yes"/>
      <point x="480" y="119" type="line"/>
      <point x="498" y="144"/>
      <point x="522" y="174"/>
      <point x="541" y="194" type="curve" smooth="yes"/>
      <point x="578" y="232"/>
      <point x="614" y="254"/>
      <point x="653" y="254" type="curve" smooth="yes"/>
      <point x="687" y="254"/>
      <point x="710" y="235"/>
      <point x="722" y="222" type="curve"/>
      <point x="733" y="210"/>
      <point x="738" y="198"/>
      <point x="743" y="181" type="curve"/>
    </contour>
    <contour>
      <point x="434" y="0" type="move" name="caret_1"/>
    </contour>
    <contour>
      <point x="575" y="-33" type="move" name="bottom_1"/>
    </contour>
    <contour>
      <point x="673" y="372" type="move" name="top_1"/>
    </contour>
    <contour>
      <point x="174" y="207" type="move" name="top_2"/>
    </contour>
    <contour>
      <point x="127" y="-507" type="move" name="bottom_2"/>
    </contour>
  </outline>
</glyph>
<glyph name="uniFCB3" format="1">
  <advance width="793"/>
  <unicode hex="FCB3"/>
  <outline>
    <contour>
      <point x="736" y="368"/>
      <point x="727" y="397"/>
      <point x="697" y="420" type="curve" smooth="yes"/>
      <point x="676" y="437"/>
      <point x="646" y="448"/>
      <point x="620" y="448" type="curve" smooth="yes"/>
      <point x="561" y="448"/>
      <point x="491" y="388"/>
      <point x="448" y="343" type="curve" smooth="yes"/>
      <point x="407" y="298"/>
      <point x="375" y="250"/>
      <point x="358" y="226" type="curve"/>
      <point x="332" y="232"/>
      <point x="317" y="250"/>
      <point x="301" y="273" type="curve" smooth="yes"/>
      <point x="290" y="289"/>
      <point x="276" y="306"/>
      <point x="245" y="306" type="curve" smooth="yes"/>
      <point x="224" y="306"/>
      <point x="206" y="297"/>
      <point x="186" y="285" type="curve" smooth="yes"/>
      <point x="168" y="273"/>
      <point x="151" y="258"/>
      <point x="135" y="236" type="curve" smooth="yes"/>
      <point x="119" y="214"/>
      <point x="108" y="190"/>
      <point x="104" y="169" type="curve" smooth="yes"/>
      <point x="99" y="152"/>
      <point x="98" y="132"/>
      <point x="100" y="112" type="curve"/>
      <point x="86" y="108"/>
      <point x="46" y="110"/>
      <point x="9" y="112" type="curve"/>
      <point x="-17" y="112" type="line" smooth="yes"/>
      <point x="-52" y="112"/>
      <point x="-74" y="88"/>
      <point x="-74" y="55" type="curve" smooth="yes"/>
      <point x="-74" y="19"/>
      <point x="-48" y="0"/>
      <point x="-17" y="0" type="curve" smooth="yes"/>
      <point x="8" y="0" type="line" smooth="yes"/>
      <point x="70" y="0"/>
      <point x="86" y="10"/>
      <point x="130" y="10" type="curve" smooth="yes"/>
      <point x="155" y="10"/>
      <point x="192" y="5"/>
      <point x="233" y="-18" type="curve"/>
      <point x="248" y="21"/>
      <point x="257" y="69"/>
      <point x="256" y="106" type="curve"/>
      <point x="221" y="115"/>
      <point x="160" y="128"/>
      <point x="160" y="163" type="curve" smooth="yes"/>
      <point x="160" y="188"/>
      <point x="183" y="225"/>
      <point x="239" y="225" type="curve" smooth="yes"/>
      <point x="279" y="225"/>
      <point x="293" y="199"/>
      <point x="306" y="176" type="curve" smooth="yes"/>
      <point x="318" y="156"/>
      <point x="329" y="143"/>
      <point x="347" y="134" type="curve" smooth="yes"/>
      <point x="372" y="122"/>
      <point x="402" y="118"/>
      <point x="434" y="118" type="curve" smooth="yes"/>
      <point x="513" y="120"/>
      <point x="590" y="148"/>
      <point x="641" y="187" type="curve" smooth="yes"/>
      <point x="667" y="207"/>
      <point x="693" y="236"/>
      <point x="709" y="262" type="curve" smooth="yes"/>
      <point x="727" y="291"/>
      <point x="736" y="324"/>
      <point x="736" y="346" type="curve" smooth="yes"/>
    </contour>
    <contour>
      <point x="656" y="271"/>
      <point x="639" y="256"/>
      <point x="609" y="244" type="curve" smooth="yes"/>
      <point x="584" y="233"/>
      <point x="552" y="225"/>
      <point x="513" y="225" type="curve" smooth="yes"/>
      <point x="407" y="225" type="line"/>
      <point x="425" y="250"/>
      <point x="449" y="280"/>
      <point x="468" y="300" type="curve" smooth="yes"/>
      <point x="505" y="338"/>
      <point x="541" y="361"/>
      <point x="580" y="361" type="curve" smooth="yes"/>
      <point x="614" y="361"/>
      <point x="637" y="342"/>
      <point x="649" y="329" type="curve"/>
      <point x="660" y="316"/>
      <point x="665" y="304"/>
      <point x="670" y="287" type="curve"/>
    </contour>
    <contour>
      <point x="397" y="0" type="move" name="caret_1"/>
    </contour>
    <contour>
      <point x="454" y="78" type="move" name="bottom_1"/>
    </contour>
    <contour>
      <point x="600" y="478" type="move" name="top_1"/>
    </contour>
    <contour>
      <point x="128" y="328" type="move" name="top_2"/>
    </contour>
    <contour>
      <point x="142" y="-41" type="move" name="bottom_2"/>
    </contour>
  </outline>
</glyph>
<glyph name="uniFCBB" format="1">
  <advance width="546"/>
  <unicode hex="FCBB"/>
  <outline>
    <contour>
      <point x="449" y="329"/>
      <point x="381" y="312"/>
      <point x="323" y="293" type="curve"/>
      <point x="282" y="315"/>
      <point x="249" y="344"/>
      <point x="241" y="393" type="curve"/>
      <point x="267" y="411"/>
      <point x="297" y="424"/>
      <point x="343" y="424" type="curve" smooth="yes"/>
      <point x="381" y="424"/>
      <point x="410" y="415"/>
      <point x="427" y="408" type="curve"/>
      <point x="455" y="434" type="line"/>
      <point x="434" y="466"/>
      <point x="387" y="503"/>
      <point x="338" y="503" type="curve" smooth="yes"/>
      <point x="301" y="503"/>
      <point x="263" y="484"/>
      <point x="233" y="456" type="curve" smooth="yes"/>
      <point x="200" y="426"/>
      <point x="178" y="386"/>
      <point x="178" y="342" type="curve" smooth="yes"/>
      <point x="178" y="306"/>
      <point x="193" y="278"/>
      <point x="227" y="250" type="curve"/>
      <point x="194" y="238"/>
      <point x="139" y="203"/>
      <point x="100" y="149" type="curve" smooth="yes"/>
      <point x="85" y="131"/>
      <point x="74" y="112"/>
      <point x="44" y="112" type="curve" smooth="yes"/>
      <point x="-18" y="112" type="line" smooth="yes"/>
      <point x="-52" y="112"/>
      <point x="-73" y="88"/>
      <point x="-73" y="55" type="curve" smooth="yes"/>
      <point x="-73" y="23"/>
      <point x="-54" y="0"/>
      <point x="-18" y="0" type="curve" smooth="yes"/>
      <point x="13" y="0" type="line" smooth="yes"/>
      <point x="53" y="0"/>
      <point x="80" y="12"/>
      <point x="94" y="47" type="curve"/>
      <point x="136" y="4"/>
      <point x="217" y="-14"/>
      <point x="247" y="-12" type="curve"/>
      <point x="270" y="6"/>
      <point x="295" y="49"/>
      <point x="294" y="89" type="curve" smooth="yes"/>
      <point x="294" y="122"/>
      <point x="281" y="159"/>
      <point x="250" y="182" type="curve"/>
      <point x="313" y="218"/>
      <point x="380" y="239"/>
      <point x="465" y="261" type="curve"/>
      <point x="478" y="287"/>
      <point x="485" y="308"/>
      <point x="495" y="337" type="curve"/>
    </contour>
    <contour>
      <point x="194" y="80"/>
      <point x="170" y="90"/>
      <point x="133" y="112" type="curve"/>
      <point x="141" y="128"/>
      <point x="159" y="147"/>
      <point x="184" y="147" type="curve" smooth="yes"/>
      <point x="223" y="147"/>
      <point x="246" y="105"/>
      <point x="238" y="70" type="curve"/>
    </contour>
    <contour>
      <point x="273" y="0" type="move" name="caret_1"/>
    </contour>
    <contour>
      <point x="293" y="-52" type="move" name="bottom_1"/>
    </contour>
    <contour>
      <point x="336" y="532" type="move" name="top_1"/>
    </contour>
    <contour>
      <point x="83" y="392" type="move" name="top_2"/>
    </contour>
    <contour>
      <point x="60" y="-26" type="move" name="bottom_2"/>
    </contour>
  </outline>
</glyph>
<glyph name="uniFCF7" format="1">
  <advance width="892"/>
  <unicode hex="FCF7"/>
  <outline>
    <contour>
      <point x="643" y="400"/>
      <point x="604" y="382"/>
      <point x="574" y="354" type="curve" smooth="yes"/>
      <point x="543" y="325"/>
      <point x="519" y="286"/>
      <point x="519" y="242" type="curve" smooth="yes"/>
      <point x="519" y="203"/>
      <point x="534" y="175"/>
      <point x="568" y="147" type="curve"/>
      <point x="512" y="123"/>
      <point x="464" y="96"/>
      <point x="449" y="76" type="curve" smooth="yes"/>
      <point x="437" y="60"/>
      <point x="427" y="40"/>
      <point x="419" y="-3" type="curve"/>
      <point x="494" y="-15"/>
      <point x="543" y="-41"/>
      <point x="543" y="-62" type="curve" smooth="yes"/>
      <point x="543" y="-86"/>
      <point x="490" y="-112"/>
      <point x="451" y="-125" type="curve" smooth="yes"/>
      <point x="421" y="-136"/>
      <point x="359" y="-156"/>
      <point x="292" y="-156" type="curve" smooth="yes"/>
      <point x="221" y="-156"/>
      <point x="168" y="-135"/>
      <point x="141" y="-102" type="curve" smooth="yes"/>
      <point x="114" y="-69"/>
      <point x="115" y="-16"/>
      <point x="127" y="42" type="curve"/>
      <point x="100" y="51" type="line"/>
      <point x="82" y="9"/>
      <point x="71" y="-41"/>
      <point x="68" y="-80" type="curve" smooth="yes"/>
      <point x="65" y="-115"/>
      <point x="69" y="-144"/>
      <point x="80" y="-171" type="curve" smooth="yes"/>
      <point x="95" y="-207"/>
      <point x="121" y="-234"/>
      <point x="158" y="-253" type="curve" smooth="yes"/>
      <point x="195" y="-272"/>
      <point x="238" y="-281"/>
      <point x="285" y="-281" type="curve" smooth="yes"/>
      <point x="348" y="-281"/>
      <point x="411" y="-266"/>
      <point x="464" y="-239" type="curve" smooth="yes"/>
      <point x="505" y="-218"/>
      <point x="542" y="-189"/>
      <point x="569" y="-152" type="curve" smooth="yes"/>
      <point x="590" y="-124"/>
      <point x="603" y="-91"/>
      <point x="603" y="-57" type="curve" smooth="yes"/>
      <point x="602" y="6"/>
      <point x="559" y="30"/>
      <point x="514" y="44" type="curve"/>
      <point x="582" y="80"/>
      <point x="689" y="125"/>
      <point x="806" y="159" type="curve"/>
      <point x="819" y="184"/>
      <point x="826" y="206"/>
      <point x="836" y="235" type="curve"/>
      <point x="790" y="227"/>
      <point x="722" y="209"/>
      <point x="664" y="191" type="curve"/>
      <point x="623" y="212"/>
      <point x="590" y="242"/>
      <point x="582" y="290" type="curve"/>
      <point x="608" y="308"/>
      <point x="638" y="323"/>
      <point x="685" y="323" type="curve" smooth="yes"/>
      <point x="721" y="323"/>
      <point x="751" y="314"/>
      <point x="768" y="307" type="curve"/>
      <point x="796" y="332" type="line"/>
      <point x="775" y="363"/>
      <point x="729" y="400"/>
      <point x="677" y="400" type="curve" smooth="yes"/>
    </contour>
    <contour>
      <point x="448" y="0" type="move" name="caret_1"/>
    </contour>
    <contour>
      <point x="606" y="-234" type="move" name="bottom_1"/>
    </contour>
    <contour>
      <point x="677" y="427" type="move" name="top_1"/>
    </contour>
    <contour>
      <point x="252" y="28" type="move" name="top_2"/>
    </contour>
    <contour>
      <point x="288" y="-311" type="move" name="bottom_2"/>
    </contour>
  </outline>
</glyph>
<glyph name="uniFD05" format="1">
  <advance width="1125"/>
  <unicode hex="FD05"/>
  <outline>
    <contour>
      <point x="1068" y="254"/>
      <point x="1059" y="284"/>
      <point x="1029" y="306" type="curve" smooth="yes"/>
      <point x="1008" y="323"/>
      <point x="978" y="335"/>
      <point x="952" y="335" type="curve" smooth="yes"/>
      <point x="893" y="335"/>
      <point x="823" y="274"/>
      <point x="780" y="229" type="curve" smooth="yes"/>
      <point x="733" y="179"/>
      <point x="702" y="130"/>
      <point x="690" y="112" type="curve"/>
      <point x="646" y="112"/>
      <point x="615" y="130"/>
      <point x="587" y="170" type="curve" smooth="yes"/>
      <point x="567" y="196"/>
      <point x="549" y="219"/>
      <point x="511" y="219" type="curve" smooth="yes"/>
      <point x="479" y="219"/>
      <point x="455" y="199"/>
      <point x="430" y="162" type="curve" smooth="yes"/>
      <point x="418" y="145"/>
      <point x="397" y="111"/>
      <point x="383" y="76" type="curve" smooth="yes"/>
      <point x="370" y="40"/>
      <point x="365" y="7"/>
      <point x="374" y="-13" type="curve" smooth="yes"/>
      <point x="383" y="-31"/>
      <point x="407" y="-46"/>
      <point x="440" y="-55" type="curve" smooth="yes"/>
      <point x="466" y="-62"/>
      <point x="497" y="-66"/>
      <point x="530" y="-69" type="curve"/>
      <point x="524" y="-95"/>
      <point x="489" y="-121"/>
      <point x="439" y="-137" type="curve" smooth="yes"/>
      <point x="395" y="-152"/>
      <point x="341" y="-157"/>
      <point x="301" y="-157" type="curve" smooth="yes"/>
      <point x="247" y="-157"/>
      <point x="188" y="-146"/>
      <point x="158" y="-116" type="curve" smooth="yes"/>
      <point x="127" y="-94"/>
      <point x="119" y="-62"/>
      <point x="119" y="-25" type="curve" smooth="yes"/>
      <point x="119" y="-9"/>
      <point x="120" y="14"/>
      <point x="126" y="40" type="curve"/>
      <point x="99" y="51" type="line"/>
      <point x="77" y="-1"/>
      <point x="65" y="-66"/>
      <point x="66" y="-109" type="curve" smooth="yes"/>
      <point x="67" y="-148"/>
      <point x="81" y="-194"/>
      <point x="117" y="-228" type="curve" smooth="yes"/>
      <point x="152" y="-260"/>
      <point x="207" y="-283"/>
      <point x="286" y="-283" type="curve" smooth="yes"/>
      <point x="377" y="-283"/>
      <point x="453" y="-256"/>
      <point x="508" y="-212" type="curve" smooth="yes"/>
      <point x="533" y="-193"/>
      <point x="559" y="-164"/>
      <point x="574" y="-136" type="curve" smooth="yes"/>
      <point x="589" y="-109"/>
      <point x="597" y="-81"/>
      <point x="597" y="-55" type="curve" smooth="yes"/>
      <point x="597" y="-16"/>
      <point x="577" y="7"/>
      <point x="535" y="12" type="curve" smooth="yes"/>
      <point x="503" y="15"/>
      <point x="488" y="16"/>
      <point x="462" y="22" type="curve" smooth="yes"/>
      <point x="447" y="26"/>
      <point x="434" y="38"/>
      <point x="436" y="58" type="curve" smooth="yes"/>
      <point x="437" y="74"/>
      <point x="456" y="115"/>
      <point x="499" y="115" type="curve" smooth="yes"/>
      <point x="524" y="115"/>
      <point x="554" y="99"/>
      <point x="576" y="75" type="curve" smooth="yes"/>
      <point x="597" y="49"/>
      <point x="618" y="28"/>
      <point x="658" y="16" type="curve"/>
      <point x="651" y="-16" type="line"/>
      <point x="690" y="-16" type="line"/>
      <point x="697" y="9" type="line"/>
      <point x="720" y="5"/>
      <point x="738" y="4"/>
      <point x="760" y="5" type="curve" smooth="yes"/>
      <point x="848" y="6"/>
      <point x="922" y="35"/>
      <point x="973" y="73" type="curve" smooth="yes"/>
      <point x="1001" y="95"/>
      <point x="1025" y="121"/>
      <point x="1041" y="148" type="curve" smooth="yes"/>
      <point x="1059" y="177"/>
      <point x="1068" y="210"/>
      <point x="1068" y="232" type="curve" smooth="yes"/>
    </contour>
    <contour>
      <point x="988" y="158"/>
      <point x="971" y="143"/>
      <point x="941" y="130" type="curve" smooth="yes"/>
      <point x="916" y="119"/>
      <point x="884" y="112"/>
      <point x="845" y="112" type="curve" smooth="yes"/>
      <point x="739" y="112" type="line"/>
      <point x="755" y="135"/>
      <point x="780" y="166"/>
      <point x="800" y="186" type="curve" smooth="yes"/>
      <point x="837" y="225"/>
      <point x="873" y="247"/>
      <point x="912" y="247" type="curve" smooth="yes"/>
      <point x="946" y="247"/>
      <point x="969" y="228"/>
      <point x="981" y="215" type="curve"/>
      <point x="992" y="203"/>
      <point x="997" y="190"/>
      <point x="1002" y="174" type="curve"/>
    </contour>
    <contour>
      <point x="559" y="0" type="move" name="caret_1"/>
    </contour>
    <contour>
      <point x="816" y="-26" type="move" name="bottom_1"/>
    </contour>
    <contour>
      <point x="932" y="365" type="move" name="top_1"/>
    </contour>
    <contour>
      <point x="237" y="48" type="move" name="top_2"/>
    </contour>
    <contour>
      <point x="289" y="-313" type="move" name="bottom_2"/>
    </contour>
  </outline>
</glyph>
<glyph name="uniFD21" format="1">
  <advance width="1190"/>
  <unicode hex="FD21"/>
  <outline>
    <contour>
      <point x="1091" y="112" type="line" smooth="yes"/>
      <point x="1055" y="112"/>
      <point x="1010" y="99"/>
      <point x="991" y="92" type="curve"/>
      <point x="1002" y="101"/>
      <point x="1012" y="111"/>
      <point x="1021" y="123" type="curve" smooth="yes"/>
      <point x="1048" y="156"/>
      <point x="1068" y="197"/>
      <point x="1068" y="230" type="curve" smooth="yes"/>
      <point x="1068" y="246"/>
      <point x="1061" y="282"/>
      <point x="1029" y="307" type="curve" smooth="yes"/>
      <point x="1009" y="323"/>
      <point x="979" y="334"/>
      <point x="952" y="334" type="curve" smooth="yes"/>
      <point x="923" y="334"/>
      <point x="896" y="322"/>
      <point x="866" y="303" type="curve" smooth="yes"/>
      <point x="830" y="281"/>
      <point x="797" y="248"/>
      <point x="780" y="229" type="curve" smooth="yes"/>
      <point x="740" y="186"/>
      <point x="703" y="132"/>
      <point x="690" y="112" type="curve"/>
      <point x="644" y="113"/>
      <point x="612" y="132"/>
      <point x="585" y="172" type="curve" smooth="yes"/>
      <point x="567" y="199"/>
      <point x="548" y="219"/>
      <point x="511" y="219" type="curve" smooth="yes"/>
      <point x="479" y="219"/>
      <point x="455" y="199"/>
      <point x="430" y="162" type="curve" smooth="yes"/>
      <point x="418" y="145"/>
      <point x="397" y="111"/>
      <point x="383" y="76" type="curve" smooth="yes"/>
      <point x="370" y="40"/>
      <point x="365" y="7"/>
      <point x="374" y="-13" type="curve" smooth="yes"/>
      <point x="383" y="-31"/>
      <point x="407" y="-46"/>
      <point x="440" y="-55" type="curve" smooth="yes"/>
      <point x="466" y="-62"/>
      <point x="497" y="-66"/>
      <point x="530" y="-69" type="curve"/>
      <point x="524" y="-91"/>
      <point x="495" y="-119"/>
      <point x="443" y="-136" type="curve" smooth="yes"/>
      <point x="402" y="-151"/>
      <point x="349" y="-157"/>
      <point x="301" y="-157" type="curve" smooth="yes"/>
      <point x="247" y="-157"/>
      <point x="188" y="-146"/>
      <point x="158" y="-116" type="curve" smooth="yes"/>
      <point x="127" y="-94"/>
      <point x="119" y="-62"/>
      <point x="119" y="-25" type="curve" smooth="yes"/>
      <point x="119" y="-9"/>
      <point x="120" y="14"/>
      <point x="126" y="40" type="curve"/>
      <point x="99" y="51" type="line"/>
      <point x="77" y="-1"/>
      <point x="65" y="-66"/>
      <point x="66" y="-109" type="curve" smooth="yes"/>
      <point x="67" y="-148"/>
      <point x="81" y="-194"/>
      <point x="117" y="-228" type="curve" smooth="yes"/>
      <point x="152" y="-260"/>
      <point x="207" y="-283"/>
      <point x="286" y="-283" type="curve" smooth="yes"/>
      <point x="376" y="-283"/>
      <point x="453" y="-256"/>
      <point x="508" y="-212" type="curve" smooth="yes"/>
      <point x="533" y="-193"/>
      <point x="559" y="-164"/>
      <point x="574" y="-136" type="curve" smooth="yes"/>
      <point x="589" y="-109"/>
      <point x="597" y="-81"/>
      <point x="597" y="-55" type="curve" smooth="yes"/>
      <point x="597" y="-16"/>
      <point x="577" y="7"/>
      <point x="535" y="12" type="curve" smooth="yes"/>
      <point x="503" y="15"/>
      <point x="488" y="16"/>
      <point x="462" y="22" type="curve" smooth="yes"/>
      <point x="447" y="26"/>
      <point x="434" y="38"/>
      <point x="436" y="58" type="curve" smooth="yes"/>
      <point x="437" y="74"/>
      <point x="456" y="115"/>
      <point x="499" y="115" type="curve" smooth="yes"/>
      <point x="533" y="115"/>
      <point x="560" y="94"/>
      <point x="578" y="73" type="curve" smooth="yes"/>
      <point x="597" y="50"/>
      <point x="615" y="28"/>
      <point x="658" y="16" type="curve"/>
      <point x="651" y="-16" type="line"/>
      <point x="690" y="-16" type="line"/>
      <point x="697" y="9" type="line"/>
      <point x="720" y="4"/>
      <point x="743" y="4"/>
      <point x="777" y="4" type="curve" smooth="yes"/>
      <point x="818" y="4"/>
      <point x="940" y="3"/>
      <point x="987" y="2" type="curve" smooth="yes"/>
      <point x="1017" y="2"/>
      <point x="1057" y="0"/>
      <point x="1083" y="0" type="curve" smooth="yes"/>
      <point x="1190" y="0" type="line"/>
      <point x="1190" y="112" type="line"/>
    </contour>
    <contour>
      <point x="992" y="149"/>
      <point x="962" y="136"/>
      <point x="930" y="126" type="curve" smooth="yes"/>
      <point x="905" y="117"/>
      <point x="876" y="112"/>
      <point x="845" y="112" type="curve" smooth="yes"/>
      <point x="739" y="112" type="line"/>
      <point x="740" y="112"/>
      <point x="767" y="153"/>
      <point x="800" y="187" type="curve" smooth="yes"/>
      <point x="834" y="222"/>
      <point x="871" y="247"/>
      <point x="913" y="247" type="curve" smooth="yes"/>
      <point x="961" y="247"/>
      <point x="993" y="214"/>
      <point x="995" y="181" type="curve"/>
    </contour>
    <contour>
      <point x="572" y="0" type="move" name="caret_1"/>
    </contour>
    <contour>
      <point x="822" y="-28" type="move" name="bottom_1"/>
    </contour>
    <contour>
      <point x="932" y="364" type="move" name="top_1"/>
    </contour>
    <contour>
      <point x="225" y="43" type="move" name="top_2"/>
    </contour>
    <contour>
      <point x="289" y="-313" type="move" name="bottom_2"/>
    </contour>
  </outline>
</glyph>
<glyph name="uniFEBB" format="1">
  <advance width="615"/>
  <unicode hex="FEBB"/>
  <outline>
    <contour>
      <point x="558" y="255"/>
      <point x="549" y="283"/>
      <point x="519" y="306" type="curve" smooth="yes"/>
      <point x="498" y="323"/>
      <point x="469" y="335"/>
      <point x="444" y="335" type="curve" smooth="yes"/>
      <point x="383" y="335"/>
      <point x="312" y="274"/>
      <point x="270" y="229" type="curve" smooth="yes"/>
      <point x="223" y="179"/>
      <point x="189" y="125"/>
      <point x="181" y="112" type="curve"/>
      <point x="165" y="113"/>
      <point x="152" y="120"/>
      <point x="142" y="131" type="curve" smooth="yes"/>
      <point x="126" y="150"/>
      <point x="125" y="176"/>
      <point x="131" y="214" type="curve"/>
      <point x="100" y="200" type="line"/>
      <point x="96" y="176"/>
      <point x="91" y="158"/>
      <point x="80" y="143" type="curve" smooth="yes"/>
      <point x="66" y="124"/>
      <point x="50" y="112"/>
      <point x="20" y="112" type="curve" smooth="yes"/>
      <point x="-19" y="112" type="line" smooth="yes"/>
      <point x="-43" y="112"/>
      <point x="-74" y="93"/>
      <point x="-74" y="55" type="curve" smooth="yes"/>
      <point x="-74" y="23"/>
      <point x="-50" y="0"/>
      <point x="-19" y="0" type="curve" smooth="yes"/>
      <point x="19" y="0" type="line" smooth="yes"/>
      <point x="68" y="0"/>
      <point x="99" y="21"/>
      <point x="110" y="60" type="curve"/>
      <point x="117" y="43"/>
      <point x="129" y="28"/>
      <point x="150" y="22" type="curve"/>
      <point x="141" y="-17" type="line"/>
      <point x="180" y="-17" type="line"/>
      <point x="187" y="9" type="line"/>
      <point x="210" y="4"/>
      <point x="234" y="4"/>
      <point x="270" y="4" type="curve" smooth="yes"/>
      <point x="333" y="4"/>
      <point x="407" y="31"/>
      <point x="462" y="73" type="curve" smooth="yes"/>
      <point x="491" y="96"/>
      <point x="515" y="122"/>
      <point x="531" y="148" type="curve" smooth="yes"/>
      <point x="549" y="177"/>
      <point x="558" y="209"/>
      <point x="558" y="234" type="curve"/>
    </contour>
    <contour>
      <point x="477" y="156"/>
      <point x="461" y="143"/>
      <point x="431" y="130" type="curve" smooth="yes"/>
      <point x="406" y="119"/>
      <point x="374" y="112"/>
      <point x="335" y="112" type="curve" smooth="yes"/>
      <point x="229" y="112" type="line"/>
      <point x="246" y="135"/>
      <point x="270" y="165"/>
      <point x="290" y="186" type="curve" smooth="yes"/>
      <point x="328" y="225"/>
      <point x="361" y="247"/>
      <point x="402" y="247" type="curve" smooth="yes"/>
      <point x="435" y="247"/>
      <point x="458" y="229"/>
      <point x="471" y="215" type="curve" smooth="yes"/>
      <point x="482" y="203"/>
      <point x="487" y="190"/>
      <point x="492" y="174" type="curve"/>
    </contour>
    <contour>
      <point x="424" y="365" type="move" name="top"/>
    </contour>
    <contour>
      <point x="293" y="-26" type="move" name="bottom"/>
    </contour>
  </outline>
</glyph>
<glyph name="uniFEDC" format="1">
  <advance width="381"/>
  <unicode hex="FEDC"/>
  <outline>
    <contour>
      <point x="277" y="513"/>
      <point x="283" y="545"/>
      <point x="287" y="581" type="curve"/>
      <point x="197" y="539"/>
      <point x="73" y="476"/>
      <point x="1" y="416" type="curve"/>
      <point x="-4" y="394"/>
      <point x="-8" y="371"/>
      <point x="-11" y="340" type="curve"/>
      <point x="16" y="315"/>
      <point x="47" y="279"/>
      <point x="70" y="251" type="curve" smooth="yes"/>
      <point x="90" y="227"/>
      <point x="122" y="184"/>
      <point x="146" y="147" type="curve"/>
      <point x="144" y="144"/>
      <point x="124" y="112"/>
      <point x="78" y="112" type="curve" smooth="yes"/>
      <point x="-18" y="112" type="line" smooth="yes"/>
      <point x="-49" y="112"/>
      <point x="-74" y="87"/>
      <point x="-74" y="56" type="curve" smooth="yes"/>
      <point x="-74" y="24"/>
      <point x="-49" y="0"/>
      <point x="-18" y="0" type="curve" smooth="yes"/>
      <point x="86" y="0" type="line" smooth="yes"/>
      <point x="155" y="0"/>
      <point x="186" y="48"/>
      <point x="193" y="100" type="curve"/>
      <point x="214" y="47"/>
      <point x="255" y="0"/>
      <point x="339" y="0" type="curve" smooth="yes"/>
      <point x="381" y="0" type="line"/>
      <point x="381" y="112" type="line"/>
      <point x="338" y="112" type="line" smooth="yes"/>
      <point x="278" y="112"/>
      <point x="248" y="150"/>
      <point x="223" y="184" type="curve" smooth="yes"/>
      <point x="203" y="211"/>
      <point x="169" y="253"/>
      <point x="137" y="288" type="curve" smooth="yes"/>
      <point x="116" y="311"/>
      <point x="82" y="347"/>
      <point x="58" y="371" type="curve"/>
      <point x="128" y="411"/>
      <point x="212" y="455"/>
      <point x="268" y="477" type="curve"/>
    </contour>
    <contour>
      <point x="111" y="546" type="move" name="top"/>
    </contour>
    <contour>
      <point x="86" y="-35" type="move" name="bottom"/>
    </contour>
  </outline>
</glyph>
<glyph name="uniFEF0" format="1">
  <advance width="684"/>
  <unicode hex="FEF0"/>
  <outline>
    <contour>
      <point x="486" y="112" type="line"/>
      <point x="462" y="83"/>
      <point x="441" y="46"/>
      <point x="419" y="0" type="curve" smooth="yes"/>
      <point x="427" y="-1"/>
      <point x="456" y="-6"/>
      <point x="480" y="-14" type="curve" smooth="yes"/>
      <point x="521" y="-27"/>
      <point x="543" y="-44"/>
      <point x="544" y="-64" type="curve"/>
      <point x="539" y="-88"/>
      <point x="497" y="-114"/>
      <point x="438" y="-132" type="curve" smooth="yes"/>
      <point x="396" y="-145"/>
      <point x="344" y="-155"/>
      <point x="295" y="-155" type="curve" smooth="yes"/>
      <point x="222" y="-155"/>
      <point x="170" y="-139"/>
      <point x="141" y="-103" type="curve" smooth="yes"/>
      <point x="113" y="-69"/>
      <point x="115" y="-17"/>
      <point x="126" y="42" type="curve"/>
      <point x="99" y="51" type="line"/>
      <point x="81" y="8"/>
      <point x="70" y="-41"/>
      <point x="67" y="-80" type="curve" smooth="yes"/>
      <point x="65" y="-114"/>
      <point x="68" y="-144"/>
      <point x="80" y="-171" type="curve" smooth="yes"/>
      <point x="94" y="-204"/>
      <point x="117" y="-230"/>
      <point x="149" y="-249" type="curve" smooth="yes"/>
      <point x="185" y="-270"/>
      <point x="231" y="-281"/>
      <point x="286" y="-281" type="curve" smooth="yes"/>
      <point x="343" y="-281"/>
      <point x="402" y="-268"/>
      <point x="454" y="-242" type="curve" smooth="yes"/>
      <point x="511" y="-216"/>
      <point x="557" y="-178"/>
      <point x="580" y="-133" type="curve" smooth="yes"/>
      <point x="599" y="-98"/>
      <point x="603" y="-69"/>
      <point x="603" y="-51" type="curve" smooth="yes"/>
      <point x="603" y="-32"/>
      <point x="598" y="-13"/>
      <point x="584" y="0" type="curve"/>
      <point x="684" y="0" type="line"/>
      <point x="684" y="112" type="line"/>
    </contour>
    <contour>
      <point x="283" y="48" type="move" name="top"/>
    </contour>
    <contour>
      <point x="304" y="-313" type="move" name="bottom"/>
    </contour>
  </outline>
</glyph>
<glyph name="TahSmallTwoDotsabovear" format="1">
  <advance width="0"/>
  <outline>
    <contour>
      <point x="34" y="685"/>
      <point x="15" y="666"/>
      <point x="0" y="651" type="curve"/>
      <point x="-14" y="667"/>
      <point x="-32" y="686"/>
      <point x="-51" y="697" type="curve"/>
      <point x="-63" y="683"/>
      <point x="-90" y="656"/>
      <point x="-107" y="640" type="curve"/>
      <point x="-84" y="622"/>
      <point x="-65" y="603"/>
      <point x="-46" y="581" type="curve"/>
      <point x="-28" y="597"/>
      <point x="-10" y="615"/>
      <point x="2" y="629" type="curve"/>
      <point x="19" y="614"/>
      <point x="35" y="598"/>
      <point x="48" y="581" type="curve"/>
      <point x="72" y="601"/>
      <point x="92" y="623"/>
      <point x="104" y="637" type="curve"/>
      <point x="92" y="657"/>
      <point x="68" y="682"/>
      <point x="44" y="697" type="curve"/>
    </contour>
    <contour>
      <point x="-50" y="869" type="line"/>
      <point x="-44" y="857"/>
      <point x="-30" y="818"/>
      <point x="-27" y="771" type="curve"/>
      <point x="-36" y="754" type="line"/>
      <point x="-66" y="754" type="line"/>
      <point x="-55" y="715" type="line"/>
      <point x="-12" y="715" type="line"/>
      <point x="9" y="715"/>
      <point x="32" y="724"/>
      <point x="51" y="737" type="curve" smooth="yes"/>
      <point x="70" y="753"/>
      <point x="81" y="771"/>
      <point x="81" y="791" type="curve" smooth="yes"/>
      <point x="81" y="808"/>
      <point x="58" y="823"/>
      <point x="42" y="823" type="curve" smooth="yes"/>
      <point x="28" y="823"/>
      <point x="7" y="814"/>
      <point x="-13" y="784" type="curve"/>
      <point x="-11" y="803"/>
      <point x="-12" y="814"/>
      <point x="-17" y="838" type="curve"/>
      <point x="-19" y="856"/>
      <point x="-15" y="859"/>
      <point x="-6" y="865" type="curve"/>
      <point x="-16" y="876"/>
      <point x="-24" y="886"/>
      <point x="-29" y="897" type="curve"/>
    </contour>
    <contour>
      <point x="52" y="763"/>
      <point x="32" y="753"/>
      <point x="10" y="753" type="curve" smooth="yes"/>
      <point x="-16" y="753" type="line"/>
      <point x="-7" y="772"/>
      <point x="8" y="793"/>
      <point x="28" y="793" type="curve" smooth="yes"/>
      <point x="47" y="793"/>
      <point x="55" y="782"/>
      <point x="60" y="774" type="curve"/>
    </contour>
    <contour>
      <point x="3" y="897" type="move" name="top"/>
    </contour>
    <contour>
      <point x="5" y="561" type="move" name="_top"/>
    </contour>
  </outline>
</glyph>
<glyph name="circumflex.below" format="1">
  <advance width="0"/>
  <outline>
    <contour>
      <point x="-70" y="-353"/>
      <point x="-65" y="-363"/>
      <point x="-59" y="-374" type="curve"/>
      <point x="-43" y="-354"/>
      <point x="-34" y="-341"/>
      <point x="-26" y="-326" type="curve" smooth="yes"/>
      <point x="-20" y="-314"/>
      <point x="-15" y="-303"/>
      <point x="-8" y="-290" type="curve" smooth="yes"/>
      <point x="-6" y="-281"/>
      <point x="-3" y="-273"/>
      <point x="0" y="-262" type="curve"/>
      <point x="1" y="-267"/>
      <point x="4" y="-275"/>
      <point x="9" y="-289" type="curve" smooth="yes"/>
      <point x="11" y="-296"/>
      <point x="15" y="-306"/>
      <point x="21" y="-316" type="curve" smooth="yes"/>
      <point x="30" y="-334"/>
      <point x="43" y="-353"/>
      <point x="61" y="-374" type="curve"/>
      <point x="66" y="-364"/>
      <point x="71" y="-356"/>
      <point x="74" y="-343" type="curve"/>
      <point x="51" y="-317"/>
      <point x="31" y="-284"/>
      <point x="20" y="-254" type="curve" smooth="yes"/>
      <point x="13" y="-236"/>
      <point x="11" y="-221"/>
      <point x="10" y="-205" type="curve"/>
      <point x="-8" y="-205" type="line"/>
      <point x="-9" y="-221"/>
      <point x="-13" y="-239"/>
      <point x="-18" y="-255" type="curve" smooth="yes"/>
      <point x="-30" y="-284"/>
      <point x="-46" y="-314"/>
      <point x="-73" y="-343" type="curve"/>
    </contour>
    <contour>
      <point x="0" y="-180" type="move" name="_bottom"/>
    </contour>
  </outline>
</glyph>
<glyph name="uni063906450649" format="1">
  <advance width="1042"/>
  <outline>
    <contour>
      <point x="940" y="327"/>
      <point x="872" y="309"/>
      <point x="814" y="291" type="curve"/>
      <point x="773" y="312"/>
      <point x="740" y="341"/>
      <point x="732" y="390" type="curve"/>
      <point x="758" y="408"/>
      <point x="788" y="421"/>
      <point x="834" y="421" type="curve" smooth="yes"/>
      <point x="872" y="421"/>
      <point x="901" y="412"/>
      <point x="918" y="406" type="curve"/>
      <point x="946" y="432" type="line"/>
      <point x="925" y="463"/>
      <point x="878" y="500"/>
      <point x="829" y="500" type="curve" smooth="yes"/>
      <point x="792" y="500"/>
      <point x="754" y="481"/>
      <point x="724" y="453" type="curve" smooth="yes"/>
      <point x="691" y="423"/>
      <point x="669" y="383"/>
      <point x="669" y="339" type="curve" smooth="yes"/>
      <point x="669" y="303"/>
      <point x="684" y="275"/>
      <point x="718" y="247" type="curve"/>
      <point x="685" y="235"/>
      <point x="632" y="207"/>
      <point x="593" y="149" type="curve" smooth="yes"/>
      <point x="544" y="81"/>
      <point x="466" y="41"/>
      <point x="390" y="40" type="curve"/>
      <point x="385" y="21"/>
      <point x="381" y="-1"/>
      <point x="379" y="-31" type="curve"/>
      <point x="409" y="-34"/>
      <point x="447" y="-38"/>
      <point x="478" y="-47" type="curve" smooth="yes"/>
      <point x="520" y="-58"/>
      <point x="543" y="-73"/>
      <point x="543" y="-89" type="curve"/>
      <point x="543" y="-116"/>
      <point x="491" y="-142"/>
      <point x="449" y="-155" type="curve" smooth="yes"/>
      <point x="414" y="-167"/>
      <point x="360" y="-183"/>
      <point x="293" y="-183" type="curve" smooth="yes"/>
      <point x="218" y="-183"/>
      <point x="168" y="-164"/>
      <point x="141" y="-131" type="curve" smooth="yes"/>
      <point x="115" y="-98"/>
      <point x="116" y="-46"/>
      <point x="127" y="14" type="curve"/>
      <point x="100" y="23" type="line"/>
      <point x="81" y="-24"/>
      <point x="71" y="-72"/>
      <point x="68" y="-108" type="curve" smooth="yes"/>
      <point x="65" y="-142"/>
      <point x="69" y="-172"/>
      <point x="81" y="-199" type="curve" smooth="yes"/>
      <point x="96" y="-236"/>
      <point x="122" y="-262"/>
      <point x="159" y="-281" type="curve" smooth="yes"/>
      <point x="195" y="-300"/>
      <point x="238" y="-309"/>
      <point x="284" y="-309" type="curve" smooth="yes"/>
      <point x="342" y="-309"/>
      <point x="400" y="-296"/>
      <point x="450" y="-272" type="curve" smooth="yes"/>
      <point x="488" y="-255"/>
      <point x="527" y="-228"/>
      <point x="552" y="-198" type="curve" smooth="yes"/>
      <point x="578" y="-169"/>
      <point x="595" y="-132"/>
      <point x="595" y="-91" type="curve" smooth="yes"/>
      <point x="595" y="-39"/>
      <point x="562" y="-8"/>
      <point x="517" y="6" type="curve"/>
      <point x="540" y="10"/>
      <point x="574" y="32"/>
      <point x="585" y="49" type="curve"/>
      <point x="626" y="6"/>
      <point x="710" y="-10"/>
      <point x="740" y="-8" type="curve"/>
      <point x="763" y="10"/>
      <point x="788" y="49"/>
      <point x="787" y="89" type="curve" smooth="yes"/>
      <point x="787" y="122"/>
      <point x="775" y="159"/>
      <point x="744" y="182" type="curve"/>
      <point x="805" y="218"/>
      <point x="871" y="235"/>
      <point x="956" y="256" type="curve"/>
      <point x="969" y="282"/>
      <point x="976" y="305"/>
      <point x="986" y="334" type="curve"/>
    </contour>
    <contour>
      <point x="687" y="80"/>
      <point x="663" y="90"/>
      <point x="626" y="112" type="curve"/>
      <point x="634" y="128"/>
      <point x="652" y="147"/>
      <point x="677" y="147" type="curve" smooth="yes"/>
      <point x="716" y="147"/>
      <point x="739" y="105"/>
      <point x="731" y="70" type="curve"/>
    </contour>
    <contour>
      <point x="861" y="1" type="move" name="bottom_1"/>
    </contour>
    <contour>
      <point x="503" y="229" type="move" name="top_2"/>
    </contour>
    <contour>
      <point x="695" y="0" type="move" name="caret_2"/>
    </contour>
    <contour>
      <point x="347" y="0" type="move" name="caret_1"/>
    </contour>
    <contour>
      <point x="304" y="-339" type="move" name="bottom_3"/>
    </contour>
    <contour>
      <point x="829" y="530" type="move" name="top_1"/>
    </contour>
    <contour>
      <point x="638" y="-202" type="move" name="bottom_2"/>
    </contour>
    <contour>
      <point x="249" y="2" type="move" name="top_3"/>
    </contour>
  </outline>
</glyph>
<glyph name="uni064306440649.fina" format="1">
  <advance width="973"/>
  <outline>
    <contour>
      <point x="793" y="541"/>
      <point x="639" y="463"/>
      <point x="565" y="393" type="curve"/>
      <point x="559" y="454"/>
      <point x="553" y="515"/>
      <point x="547" y="581" type="curve"/>
      <point x="518" y="553"/>
      <point x="499" y="530"/>
      <point x="474" y="491" type="curve"/>
      <point x="487" y="417"/>
      <point x="501" y="334"/>
      <point x="512" y="251" type="curve" smooth="yes"/>
      <point x="517" y="215"/>
      <point x="523" y="163"/>
      <point x="529" y="116" type="curve"/>
      <point x="519" y="74"/>
      <point x="431" y="41"/>
      <point x="390" y="40" type="curve"/>
      <point x="385" y="21"/>
      <point x="381" y="-1"/>
      <point x="379" y="-31" type="curve"/>
      <point x="409" y="-34"/>
      <point x="447" y="-38"/>
      <point x="478" y="-47" type="curve" smooth="yes"/>
      <point x="520" y="-58"/>
      <point x="543" y="-73"/>
      <point x="543" y="-89" type="curve"/>
      <point x="543" y="-116"/>
      <point x="491" y="-142"/>
      <point x="449" y="-155" type="curve" smooth="yes"/>
      <point x="414" y="-167"/>
      <point x="360" y="-183"/>
      <point x="293" y="-183" type="curve" smooth="yes"/>
      <point x="218" y="-183"/>
      <point x="168" y="-164"/>
      <point x="141" y="-131" type="curve" smooth="yes"/>
      <point x="115" y="-98"/>
      <point x="116" y="-46"/>
      <point x="127" y="14" type="curve"/>
      <point x="100" y="23" type="line"/>
      <point x="81" y="-24"/>
      <point x="71" y="-72"/>
      <point x="68" y="-108" type="curve" smooth="yes"/>
      <point x="65" y="-142"/>
      <point x="69" y="-172"/>
      <point x="81" y="-199" type="curve" smooth="yes"/>
      <point x="96" y="-236"/>
      <point x="122" y="-262"/>
      <point x="159" y="-281" type="curve" smooth="yes"/>
      <point x="195" y="-300"/>
      <point x="238" y="-309"/>
      <point x="284" y="-309" type="curve" smooth="yes"/>
      <point x="342" y="-309"/>
      <point x="400" y="-296"/>
      <point x="450" y="-272" type="curve" smooth="yes"/>
      <point x="488" y="-255"/>
      <point x="527" y="-228"/>
      <point x="552" y="-198" type="curve" smooth="yes"/>
      <point x="578" y="-169"/>
      <point x="595" y="-132"/>
      <point x="595" y="-91" type="curve" smooth="yes"/>
      <point x="595" y="-37"/>
      <point x="563" y="-5"/>
      <point x="515" y="8" type="curve"/>
      <point x="532" y="16"/>
      <point x="564" y="43"/>
      <point x="571" y="75" type="curve"/>
      <point x="590" y="28"/>
      <point x="627" y="0"/>
      <point x="680" y="0" type="curve"/>
      <point x="744" y="0"/>
      <point x="780" y="41"/>
      <point x="785" y="100" type="curve"/>
      <point x="806" y="47"/>
      <point x="847" y="0"/>
      <point x="931" y="0" type="curve" smooth="yes"/>
      <point x="973" y="0" type="line"/>
      <point x="973" y="112" type="line"/>
      <point x="930" y="112" type="line" smooth="yes"/>
      <point x="870" y="112"/>
      <point x="840" y="150"/>
      <point x="815" y="184" type="curve" smooth="yes"/>
      <point x="790" y="216"/>
      <point x="759" y="255"/>
      <point x="729" y="288" type="curve" smooth="yes"/>
      <point x="708" y="311"/>
      <point x="674" y="347"/>
      <point x="650" y="371" type="curve"/>
      <point x="720" y="411"/>
      <point x="804" y="455"/>
      <point x="860" y="477" type="curve"/>
      <point x="869" y="513"/>
      <point x="875" y="545"/>
      <point x="879" y="581" type="curve"/>
    </contour>
    <contour>
      <point x="734" y="141"/>
      <point x="714" y="111"/>
      <point x="667" y="109" type="curve"/>
      <point x="638" y="110"/>
      <point x="621" y="120"/>
      <point x="608" y="135" type="curve" smooth="yes"/>
      <point x="596" y="149"/>
      <point x="591" y="171"/>
      <point x="589" y="185" type="curve" smooth="yes"/>
      <point x="582" y="245"/>
      <point x="577" y="291"/>
      <point x="571" y="344" type="curve"/>
      <point x="600" y="316"/>
      <point x="643" y="273"/>
      <point x="663" y="249" type="curve" smooth="yes"/>
      <point x="689" y="219"/>
      <point x="715" y="190"/>
      <point x="739" y="147" type="curve"/>
    </contour>
    <contour>
      <point x="743" y="-55" type="move" name="bottom_1"/>
    </contour>
    <contour>
      <point x="440" y="581" type="move" name="top_2"/>
    </contour>
    <contour>
      <point x="654" y="0" type="move" name="caret_2"/>
    </contour>
    <contour>
      <point x="335" y="0" type="move" name="caret_1"/>
    </contour>
    <contour>
      <point x="287" y="-339" type="move" name="bottom_3"/>
    </contour>
    <contour>
      <point x="763" y="581" type="move" name="top_1"/>
    </contour>
    <contour>
      <point x="546" y="-302" type="move" name="bottom_2"/>
    </contour>
    <contour>
      <point x="247" y="22" type="move" name="top_3"/>
    </contour>
  </outline>
</glyph>
<glyph name="uni064306440649" format="1">
  <advance width="887"/>
  <outline>
    <contour>
      <point x="781" y="541"/>
      <point x="634" y="468"/>
      <point x="558" y="395" type="curve"/>
      <point x="552" y="455"/>
      <point x="546" y="516"/>
      <point x="540" y="581" type="curve"/>
      <point x="511" y="553"/>
      <point x="492" y="530"/>
      <point x="467" y="491" type="curve"/>
      <point x="480" y="417"/>
      <point x="494" y="334"/>
      <point x="505" y="251" type="curve" smooth="yes"/>
      <point x="510" y="215"/>
      <point x="516" y="163"/>
      <point x="522" y="116" type="curve"/>
      <point x="510" y="75"/>
      <point x="424" y="41"/>
      <point x="383" y="40" type="curve"/>
      <point x="378" y="21"/>
      <point x="374" y="-1"/>
      <point x="372" y="-31" type="curve"/>
      <point x="402" y="-34"/>
      <point x="440" y="-38"/>
      <point x="471" y="-47" type="curve" smooth="yes"/>
      <point x="513" y="-58"/>
      <point x="536" y="-73"/>
      <point x="536" y="-89" type="curve"/>
      <point x="536" y="-117"/>
      <point x="486" y="-141"/>
      <point x="446" y="-155" type="curve" smooth="yes"/>
      <point x="410" y="-167"/>
      <point x="354" y="-183"/>
      <point x="286" y="-183" type="curve" smooth="yes"/>
      <point x="211" y="-183"/>
      <point x="161" y="-164"/>
      <point x="134" y="-131" type="curve" smooth="yes"/>
      <point x="108" y="-98"/>
      <point x="109" y="-46"/>
      <point x="120" y="14" type="curve"/>
      <point x="93" y="23" type="line"/>
      <point x="74" y="-24"/>
      <point x="64" y="-72"/>
      <point x="61" y="-108" type="curve" smooth="yes"/>
      <point x="58" y="-142"/>
      <point x="62" y="-172"/>
      <point x="74" y="-199" type="curve" smooth="yes"/>
      <point x="89" y="-236"/>
      <point x="115" y="-262"/>
      <point x="152" y="-281" type="curve" smooth="yes"/>
      <point x="188" y="-300"/>
      <point x="231" y="-309"/>
      <point x="277" y="-309" type="curve" smooth="yes"/>
      <point x="336" y="-309"/>
      <point x="395" y="-296"/>
      <point x="447" y="-271" type="curve" smooth="yes"/>
      <point x="485" y="-253"/>
      <point x="526" y="-224"/>
      <point x="551" y="-193" type="curve" smooth="yes"/>
      <point x="574" y="-165"/>
      <point x="590" y="-130"/>
      <point x="590" y="-92" type="curve" smooth="yes"/>
      <point x="590" y="-38"/>
      <point x="553" y="-8"/>
      <point x="506" y="5" type="curve"/>
      <point x="526" y="13"/>
      <point x="557" y="43"/>
      <point x="564" y="75" type="curve"/>
      <point x="581" y="28"/>
      <point x="624" y="-1"/>
      <point x="673" y="0" type="curve" smooth="yes"/>
      <point x="752" y="0"/>
      <point x="797" y="52"/>
      <point x="797" y="135" type="curve" smooth="yes"/>
      <point x="797" y="193"/>
      <point x="774" y="246"/>
      <point x="745" y="289" type="curve" smooth="yes"/>
      <point x="724" y="320"/>
      <point x="690" y="352"/>
      <point x="652" y="379" type="curve"/>
      <point x="721" y="418"/>
      <point x="795" y="453"/>
      <point x="848" y="477" type="curve"/>
      <point x="858" y="514"/>
      <point x="863" y="544"/>
      <point x="867" y="581" type="curve"/>
    </contour>
    <contour>
      <point x="728" y="129"/>
      <point x="701" y="109"/>
      <point x="663" y="109" type="curve"/>
      <point x="633" y="109"/>
      <point x="612" y="118"/>
      <point x="599" y="135" type="curve" smooth="yes"/>
      <point x="587" y="149"/>
      <point x="582" y="171"/>
      <point x="580" y="185" type="curve" smooth="yes"/>
      <point x="574" y="238"/>
      <point x="569" y="286"/>
      <point x="564" y="333" type="curve"/>
      <point x="636" y="301"/>
      <point x="739" y="187"/>
      <point x="739" y="148" type="curve"/>
    </contour>
    <contour>
      <point x="738" y="-61" type="move" name="bottom_1"/>
    </contour>
    <contour>
      <point x="433" y="579" type="move" name="top_2"/>
    </contour>
    <contour>
      <point x="568" y="0" type="move" name="caret_2"/>
    </contour>
    <contour>
      <point x="289" y="0" type="move" name="caret_1"/>
    </contour>
    <contour>
      <point x="281" y="-339" type="move" name="bottom_3"/>
    </contour>
    <contour>
      <point x="750" y="584" type="move" name="top_1"/>
    </contour>
    <contour>
      <point x="539" y="-296" type="move" name="bottom_2"/>
    </contour>
    <contour>
      <point x="248" y="22" type="move" name="top_3"/>
    </contour>
  </outline>
</glyph>
<glyph name="uni064406450649" format="1">
  <advance width="861"/>
  <outline>
    <contour>
      <point x="760" y="131"/>
      <point x="732" y="143"/>
      <point x="717" y="152" type="curve" smooth="yes"/>
      <point x="681" y="175"/>
      <point x="673" y="195"/>
      <point x="660" y="296" type="curve" smooth="yes"/>
      <point x="655" y="332"/>
      <point x="650" y="381"/>
      <point x="648" y="399" type="curve" smooth="yes"/>
      <point x="642" y="444"/>
      <point x="659" y="466"/>
      <point x="678" y="482" type="curve"/>
      <point x="645" y="517"/>
      <point x="623" y="544"/>
      <point x="608" y="581" type="curve"/>
      <point x="545" y="492" type="line"/>
      <point x="557" y="464"/>
      <point x="574" y="396"/>
      <point x="584" y="343" type="curve" smooth="yes"/>
      <point x="597" y="277"/>
      <point x="611" y="154"/>
      <point x="634" y="112" type="curve"/>
      <point x="535" y="121"/>
      <point x="476" y="99"/>
      <point x="451" y="80" type="curve"/>
      <point x="440" y="70"/>
      <point x="427" y="47"/>
      <point x="420" y="-1" type="curve"/>
      <point x="441" y="-5"/>
      <point x="461" y="-9"/>
      <point x="486" y="-17" type="curve"/>
      <point x="521" y="-29"/>
      <point x="543" y="-45"/>
      <point x="543" y="-64" type="curve" smooth="yes"/>
      <point x="543" y="-89"/>
      <point x="496" y="-113"/>
      <point x="456" y="-126" type="curve" smooth="yes"/>
      <point x="420" y="-139"/>
      <point x="361" y="-155"/>
      <point x="296" y="-155" type="curve" smooth="yes"/>
      <point x="223" y="-155"/>
      <point x="171" y="-140"/>
      <point x="141" y="-103" type="curve" smooth="yes"/>
      <point x="114" y="-69"/>
      <point x="113" y="-6"/>
      <point x="127" y="51" type="curve"/>
      <point x="100" y="61" type="line"/>
      <point x="83" y="20"/>
      <point x="71" y="-38"/>
      <point x="68" y="-78" type="curve" smooth="yes"/>
      <point x="65" y="-111"/>
      <point x="69" y="-143"/>
      <point x="81" y="-171" type="curve" smooth="yes"/>
      <point x="95" y="-207"/>
      <point x="121" y="-235"/>
      <point x="158" y="-254" type="curve" smooth="yes"/>
      <point x="192" y="-272"/>
      <point x="236" y="-281"/>
      <point x="287" y="-281" type="curve" smooth="yes"/>
      <point x="347" y="-281"/>
      <point x="408" y="-268"/>
      <point x="460" y="-242" type="curve" smooth="yes"/>
      <point x="515" y="-215"/>
      <point x="557" y="-177"/>
      <point x="580" y="-134" type="curve" smooth="yes"/>
      <point x="595" y="-106"/>
      <point x="603" y="-78"/>
      <point x="603" y="-53" type="curve"/>
      <point x="603" y="-11"/>
      <point x="579" y="13"/>
      <point x="547" y="30" type="curve"/>
      <point x="590" y="31"/>
      <point x="692" y="21"/>
      <point x="760" y="-17" type="curve"/>
      <point x="778" y="24"/>
      <point x="787" y="85"/>
      <point x="783" y="123" type="curve"/>
    </contour>
    <contour>
      <point x="505" y="-319" type="move" name="bottom_1"/>
    </contour>
    <contour>
      <point x="467" y="581" type="move" name="top_2"/>
    </contour>
    <contour>
      <point x="620" y="0" type="move" name="caret_2"/>
    </contour>
    <contour>
      <point x="310" y="0" type="move" name="caret_1"/>
    </contour>
    <contour>
      <point x="265" y="-311" type="move" name="bottom_3"/>
    </contour>
    <contour>
      <point x="749" y="581" type="move" name="top_1"/>
    </contour>
    <contour>
      <point x="706" y="-84" type="move" name="bottom_2"/>
    </contour>
    <contour>
      <point x="273" y="24" type="move" name="top_3"/>
    </contour>
  </outline>
</glyph>
<glyph name="uni064406470649" format="1">
  <advance width="935"/>
  <outline>
    <contour>
      <point x="65" y="-107"/>
      <point x="67" y="-141"/>
      <point x="81" y="-173" type="curve" smooth="yes"/>
      <point x="94" y="-206"/>
      <point x="119" y="-235"/>
      <point x="158" y="-255" type="curve" smooth="yes"/>
      <point x="192" y="-273"/>
      <point x="237" y="-283"/>
      <point x="285" y="-283" type="curve" smooth="yes"/>
      <point x="345" y="-283"/>
      <point x="413" y="-267"/>
      <point x="468" y="-239" type="curve" smooth="yes"/>
      <point x="520" y="-212"/>
      <point x="558" y="-174"/>
      <point x="580" y="-134" type="curve" smooth="yes"/>
      <point x="596" y="-104"/>
      <point x="602" y="-76"/>
      <point x="603" y="-55" type="curve"/>
      <point x="603" y="-8"/>
      <point x="573" y="17"/>
      <point x="537" y="33" type="curve"/>
      <point x="569" y="39"/>
      <point x="599" y="49"/>
      <point x="625" y="62" type="curve"/>
      <point x="682" y="36"/>
      <point x="716" y="29"/>
      <point x="773" y="-9" type="curve"/>
      <point x="789" y="8"/>
      <point x="808" y="27"/>
      <point x="823" y="43" type="curve" smooth="yes"/>
      <point x="845" y="67"/>
      <point x="858" y="102"/>
      <point x="858" y="136" type="curve" smooth="yes"/>
      <point x="858" y="165"/>
      <point x="848" y="191"/>
      <point x="826" y="214" type="curve" smooth="yes"/>
      <point x="807" y="235"/>
      <point x="783" y="251"/>
      <point x="759" y="267" type="curve"/>
      <point x="726" y="289"/>
      <point x="700" y="304"/>
      <point x="689" y="338" type="curve" smooth="yes"/>
      <point x="683" y="356"/>
      <point x="677" y="374"/>
      <point x="672" y="400" type="curve" smooth="yes"/>
      <point x="665" y="437"/>
      <point x="677" y="465"/>
      <point x="703" y="484" type="curve"/>
      <point x="673" y="513"/>
      <point x="648" y="552"/>
      <point x="633" y="581" type="curve"/>
      <point x="572" y="492" type="line"/>
      <point x="589" y="456"/>
      <point x="621" y="340"/>
      <point x="629" y="294" type="curve"/>
      <point x="589" y="279"/>
      <point x="558" y="256"/>
      <point x="535" y="212" type="curve" smooth="yes"/>
      <point x="514" y="169"/>
      <point x="519" y="126"/>
      <point x="555" y="103" type="curve"/>
      <point x="510" y="86"/>
      <point x="484" y="77"/>
      <point x="454" y="69" type="curve" smooth="yes"/>
      <point x="441" y="65"/>
      <point x="435" y="54"/>
      <point x="431" y="38" type="curve" smooth="yes"/>
      <point x="429" y="26"/>
      <point x="428" y="13"/>
      <point x="425" y="-2" type="curve"/>
      <point x="437" y="-4"/>
      <point x="465" y="-12"/>
      <point x="485" y="-18" type="curve" smooth="yes"/>
      <point x="521" y="-30"/>
      <point x="543" y="-47"/>
      <point x="543" y="-64" type="curve" smooth="yes"/>
      <point x="543" y="-89"/>
      <point x="505" y="-109"/>
      <point x="457" y="-126" type="curve" smooth="yes"/>
      <point x="425" y="-139"/>
      <point x="363" y="-157"/>
      <point x="293" y="-157" type="curve" smooth="yes"/>
      <point x="227" y="-157"/>
      <point x="171" y="-141"/>
      <point x="141" y="-104" type="curve" smooth="yes"/>
      <point x="113" y="-71"/>
      <point x="114" y="-13"/>
      <point x="127" y="40" type="curve"/>
      <point x="100" y="50" type="line"/>
      <point x="84" y="11"/>
      <point x="73" y="-30"/>
      <point x="68" y="-75" type="curve" smooth="yes"/>
    </contour>
    <contour>
      <point x="563" y="193"/>
      <point x="579" y="211"/>
      <point x="597" y="226" type="curve"/>
      <point x="612" y="239"/>
      <point x="629" y="249"/>
      <point x="642" y="249" type="curve" smooth="yes"/>
      <point x="652" y="249"/>
      <point x="663" y="239"/>
      <point x="671" y="226" type="curve"/>
      <point x="679" y="212"/>
      <point x="685" y="196"/>
      <point x="685" y="186" type="curve" smooth="yes"/>
      <point x="685" y="174"/>
      <point x="678" y="163"/>
      <point x="667" y="154" type="curve"/>
      <point x="656" y="146"/>
      <point x="643" y="141"/>
      <point x="629" y="141" type="curve" smooth="yes"/>
      <point x="618" y="141"/>
      <point x="601" y="148"/>
      <point x="587" y="156" type="curve"/>
      <point x="574" y="165"/>
      <point x="564" y="175"/>
      <point x="562" y="184" type="curve"/>
    </contour>
    <contour>
      <point x="707" y="137"/>
      <point x="716" y="154"/>
      <point x="720" y="172" type="curve"/>
      <point x="723" y="190"/>
      <point x="722" y="209"/>
      <point x="715" y="230" type="curve"/>
      <point x="744" y="207"/>
      <point x="756" y="200"/>
      <point x="779" y="181" type="curve" smooth="yes"/>
      <point x="802" y="162"/>
      <point x="812" y="125"/>
      <point x="789" y="99" type="curve"/>
      <point x="777" y="102"/>
      <point x="717" y="116"/>
      <point x="695" y="122" type="curve"/>
    </contour>
    <contour>
      <point x="715" y="-83" type="move" name="bottom_1"/>
    </contour>
    <contour>
      <point x="632" y="494" type="move" name="top_2"/>
    </contour>
    <contour>
      <point x="614" y="0" type="move" name="caret_2"/>
    </contour>
    <contour>
      <point x="394" y="-53" type="move" name="caret_1"/>
    </contour>
    <contour>
      <point x="296" y="-313" type="move" name="bottom_3"/>
    </contour>
    <contour>
      <point x="685" y="581" type="move" name="top_1"/>
    </contour>
    <contour>
      <point x="533" y="-291" type="move" name="bottom_2"/>
    </contour>
    <contour>
      <point x="271" y="40" type="move" name="top_3"/>
    </contour>
  </outline>
</glyph>
<glyph name="uni066E.medi" format="1">
  <advance width="309"/>
  <outline>
    <contour>
      <point x="130" y="198" type="line"/>
      <point x="127" y="160"/>
      <point x="111" y="112"/>
      <point x="40" y="112" type="curve" smooth="yes"/>
      <point x="-18" y="112" type="line" smooth="yes"/>
      <point x="-44" y="112"/>
      <point x="-74" y="91"/>
      <point x="-74" y="57" type="curve" smooth="yes"/>
      <point x="-74" y="25"/>
      <point x="-49" y="0"/>
      <point x="-18" y="0" type="curve" smooth="yes"/>
      <point x="56" y="0" type="line" smooth="yes"/>
      <point x="87" y="0"/>
      <point x="113" y="11"/>
      <point x="131" y="28" type="curve" smooth="yes"/>
      <point x="149" y="46"/>
      <point x="154" y="61"/>
      <point x="157" y="67" type="curve"/>
      <point x="158" y="61"/>
      <point x="163" y="45"/>
      <point x="179" y="30" type="curve" smooth="yes"/>
      <point x="195" y="14"/>
      <point x="219" y="0"/>
      <point x="262" y="0" type="curve" smooth="yes"/>
      <point x="309" y="0" type="line"/>
      <point x="309" y="112" type="line"/>
      <point x="248" y="112" type="line" smooth="yes"/>
      <point x="215" y="112"/>
      <point x="192" y="120"/>
      <point x="177" y="136" type="curve" smooth="yes"/>
      <point x="160" y="156"/>
      <point x="160" y="191"/>
      <point x="162" y="212" type="curve"/>
    </contour>
    <contour>
      <point x="25" y="219" type="move" name="top"/>
    </contour>
    <contour>
      <point x="15" y="-26" type="move" name="bottom"/>
    </contour>
  </outline>
</glyph>
<glyph name="uni066E0631" format="1">
  <advance width="529"/>
  <outline>
    <contour>
      <point x="362" y="252"/>
      <point x="303" y="229"/>
      <point x="279" y="217" type="curve" smooth="yes"/>
      <point x="231" y="193"/>
      <point x="202" y="140"/>
      <point x="201" y="86" type="curve" smooth="yes"/>
      <point x="197" y="64"/>
      <point x="197" y="39"/>
      <point x="199" y="11" type="curve" smooth="yes"/>
      <point x="200" y="-20"/>
      <point x="192" y="-47"/>
      <point x="174" y="-76" type="curve" smooth="yes"/>
      <point x="156" y="-113"/>
      <point x="122" y="-141"/>
      <point x="57" y="-179" type="curve" smooth="yes"/>
      <point x="11" y="-205"/>
      <point x="-45" y="-235"/>
      <point x="-70" y="-248" type="curve"/>
      <point x="-54" y="-271" type="line"/>
      <point x="-32" y="-265"/>
      <point x="-9" y="-262"/>
      <point x="8" y="-262" type="curve" smooth="yes"/>
      <point x="30" y="-262"/>
      <point x="54" y="-266"/>
      <point x="77" y="-266" type="curve" smooth="yes"/>
      <point x="117" y="-266"/>
      <point x="142" y="-254"/>
      <point x="168" y="-230" type="curve" smooth="yes"/>
      <point x="190" y="-209"/>
      <point x="211" y="-181"/>
      <point x="229" y="-139" type="curve" smooth="yes"/>
      <point x="250" y="-92"/>
      <point x="260" y="-51"/>
      <point x="261" y="-6" type="curve" smooth="yes"/>
      <point x="262" y="22"/>
      <point x="260" y="45"/>
      <point x="253" y="83" type="curve"/>
      <point x="267" y="100"/>
      <point x="351" y="128"/>
      <point x="419" y="128" type="curve" smooth="yes"/>
      <point x="426" y="128"/>
      <point x="432" y="128"/>
      <point x="438" y="127" type="curve"/>
      <point x="462" y="181"/>
      <point x="470" y="232"/>
      <point x="473" y="250" type="curve"/>
      <point x="460" y="251"/>
      <point x="449" y="252"/>
      <point x="434" y="252" type="curve" smooth="yes"/>
    </contour>
    <contour>
      <point x="290" y="0" type="move" name="caret_1"/>
    </contour>
    <contour>
      <point x="377" y="-16" type="move" name="bottom_1"/>
    </contour>
    <contour>
      <point x="377" y="299" type="move" name="top_1"/>
    </contour>
    <contour>
      <point x="154" y="229" type="move" name="top_2"/>
    </contour>
    <contour>
      <point x="42" y="-294" type="move" name="bottom_2"/>
    </contour>
  </outline>
</glyph>
<glyph name="uni066E0645" format="1">
  <advance width="472"/>
  <outline>
    <contour>
      <point x="410" y="118"/>
      <point x="415" y="136"/>
      <point x="415" y="152" type="curve"/>
      <point x="414" y="182"/>
      <point x="392" y="201"/>
      <point x="353" y="201" type="curve" smooth="yes"/>
      <point x="296" y="201"/>
      <point x="248" y="174"/>
      <point x="213" y="134" type="curve" smooth="yes"/>
      <point x="186" y="103"/>
      <point x="162" y="65"/>
      <point x="154" y="18" type="curve"/>
      <point x="118" y="0"/>
      <point x="99" y="-13"/>
      <point x="79" y="-45" type="curve" smooth="yes"/>
      <point x="60" y="-74"/>
      <point x="48" y="-114"/>
      <point x="55" y="-165" type="curve" smooth="yes"/>
      <point x="87" y="-361"/>
      <point x="95" y="-440"/>
      <point x="99" y="-486" type="curve"/>
      <point x="142" y="-471" type="line"/>
      <point x="141" y="-414"/>
      <point x="134" y="-319"/>
      <point x="124" y="-222" type="curve" smooth="yes"/>
      <point x="118" y="-169"/>
      <point x="115" y="-141"/>
      <point x="107" y="-96" type="curve"/>
      <point x="129" y="-74"/>
      <point x="162" y="-62"/>
      <point x="210" y="-62" type="curve" smooth="yes"/>
      <point x="253" y="-62"/>
      <point x="278" y="-66"/>
      <point x="309" y="-74" type="curve"/>
      <point x="330" y="-47"/>
      <point x="346" y="-18"/>
      <point x="356" y="15" type="curve"/>
      <point x="337" y="33"/>
      <point x="285" y="66"/>
      <point x="232" y="79" type="curve"/>
      <point x="241" y="88"/>
      <point x="254" y="98"/>
      <point x="268" y="106" type="curve" smooth="yes"/>
      <point x="286" y="117"/>
      <point x="305" y="125"/>
      <point x="326" y="129" type="curve" smooth="yes"/>
      <point x="359" y="136"/>
      <point x="387" y="127"/>
      <point x="383" y="105" type="curve"/>
      <point x="400" y="105" type="line"/>
    </contour>
    <contour>
      <point x="236" y="0" type="move" name="caret_1"/>
    </contour>
    <contour>
      <point x="309" y="-104" type="move" name="bottom_1"/>
    </contour>
    <contour>
      <point x="313" y="234" type="move" name="top_1"/>
    </contour>
    <contour>
      <point x="91" y="112" type="move" name="top_2"/>
    </contour>
    <contour>
      <point x="120" y="-511" type="move" name="bottom_2"/>
    </contour>
  </outline>
</glyph>
<glyph name="uni066E06BA" format="1">
  <advance width="800"/>
  <outline>
    <contour>
      <point x="705" y="282" type="line"/>
      <point x="701" y="238"/>
      <point x="670" y="196"/>
      <point x="612" y="196" type="curve" smooth="yes"/>
      <point x="576" y="196"/>
      <point x="541" y="205"/>
      <point x="513" y="222" type="curve" smooth="yes"/>
      <point x="492" y="235"/>
      <point x="477" y="250"/>
      <point x="467" y="261" type="curve"/>
      <point x="449" y="238"/>
      <point x="432" y="214"/>
      <point x="415" y="185" type="curve"/>
      <point x="462" y="114"/>
      <point x="491" y="61"/>
      <point x="491" y="28" type="curve" smooth="yes"/>
      <point x="491" y="-1"/>
      <point x="469" y="-25"/>
      <point x="438" y="-42" type="curve" smooth="yes"/>
      <point x="410" y="-57"/>
      <point x="363" y="-74"/>
      <point x="295" y="-74" type="curve" smooth="yes"/>
      <point x="258" y="-74"/>
      <point x="226" y="-68"/>
      <point x="202" y="-60" type="curve" smooth="yes"/>
      <point x="173" y="-50"/>
      <point x="153" y="-37"/>
      <point x="139" y="-18" type="curve" smooth="yes"/>
      <point x="116" y="14"/>
      <point x="117" y="59"/>
      <point x="127" y="113" type="curve"/>
      <point x="100" y="122" type="line"/>
      <point x="82" y="83"/>
      <point x="71" y="38"/>
      <point x="68" y="1" type="curve" smooth="yes"/>
      <point x="65" y="-33"/>
      <point x="70" y="-65"/>
      <point x="81" y="-91" type="curve" smooth="yes"/>
      <point x="94" y="-123"/>
      <point x="117" y="-150"/>
      <point x="157" y="-171" type="curve" smooth="yes"/>
      <point x="193" y="-190"/>
      <point x="235" y="-200"/>
      <point x="286" y="-200" type="curve" smooth="yes"/>
      <point x="328" y="-200"/>
      <point x="364" y="-194"/>
      <point x="391" y="-184" type="curve" smooth="yes"/>
      <point x="436" y="-168"/>
      <point x="477" y="-138"/>
      <point x="502" y="-100" type="curve" smooth="yes"/>
      <point x="549" y="-42"/>
      <point x="553" y="44"/>
      <point x="539" y="111" type="curve"/>
      <point x="556" y="98"/>
      <point x="580" y="91"/>
      <point x="612" y="90" type="curve" smooth="yes"/>
      <point x="655" y="89"/>
      <point x="689" y="107"/>
      <point x="712" y="138" type="curve" smooth="yes"/>
      <point x="742" y="180"/>
      <point x="752" y="241"/>
      <point x="737" y="296" type="curve"/>
    </contour>
    <contour>
      <point x="402" y="0" type="move" name="caret_1"/>
    </contour>
    <contour>
      <point x="660" y="-10" type="move" name="bottom_1"/>
    </contour>
    <contour>
      <point x="585" y="296" type="move" name="top_1"/>
    </contour>
    <contour>
      <point x="289" y="21" type="move" name="top_2"/>
    </contour>
    <contour>
      <point x="289" y="-230" type="move" name="bottom_2"/>
    </contour>
  </outline>
</glyph>
<glyph name="uniFB94.001" format="1">
  <advance width="671"/>
  <outline>
    <contour>
      <point x="611" y="146"/>
      <point x="603" y="186"/>
      <point x="576" y="223" type="curve" smooth="yes"/>
      <point x="540" y="270"/>
      <point x="482" y="294"/>
      <point x="402" y="294" type="curve" smooth="yes"/>
      <point x="353" y="293"/>
      <point x="233" y="289"/>
      <point x="188" y="289" type="curve" smooth="yes"/>
      <point x="167" y="289"/>
      <point x="147" y="291"/>
      <point x="130" y="295" type="curve"/>
      <point x="98" y="302"/>
      <point x="80" y="317"/>
      <point x="78" y="332" type="curve"/>
      <point x="116" y="370"/>
      <point x="175" y="398"/>
      <point x="234" y="416" type="curve"/>
      <point x="244" y="450"/>
      <point x="250" y="480"/>
      <point x="254" y="516" type="curve"/>
      <point x="168" y="484"/>
      <point x="114" y="446"/>
      <point x="78" y="404" type="curve" smooth="yes"/>
      <point x="44" y="366"/>
      <point x="25" y="324"/>
      <point x="25" y="290" type="curve" smooth="yes"/>
      <point x="25" y="269"/>
      <point x="33" y="252"/>
      <point x="47" y="238" type="curve" smooth="yes"/>
      <point x="63" y="222"/>
      <point x="89" y="211"/>
      <point x="122" y="204" type="curve" smooth="yes"/>
      <point x="145" y="200"/>
      <point x="165" y="199"/>
      <point x="177" y="199" type="curve" smooth="yes"/>
      <point x="234" y="199"/>
      <point x="383" y="205"/>
      <point x="433" y="205" type="curve" smooth="yes"/>
      <point x="476" y="205"/>
      <point x="507" y="187"/>
      <point x="528" y="170" type="curve" smooth="yes"/>
      <point x="547" y="156"/>
      <point x="556" y="139"/>
      <point x="562" y="119" type="curve"/>
      <point x="546" y="118"/>
      <point x="486" y="116"/>
      <point x="455" y="115" type="curve" smooth="yes"/>
      <point x="420" y="113"/>
      <point x="379" y="113"/>
      <point x="342" y="113" type="curve" smooth="yes"/>
      <point x="265" y="113"/>
      <point x="227" y="111"/>
      <point x="100" y="112" type="curve"/>
      <point x="-18" y="112" type="line" smooth="yes"/>
      <point x="-44" y="112"/>
      <point x="-74" y="91"/>
      <point x="-74" y="57" type="curve" smooth="yes"/>
      <point x="-74" y="25"/>
      <point x="-49" y="0"/>
      <point x="-18" y="0" type="curve" smooth="yes"/>
      <point x="132" y="0" type="line" smooth="yes"/>
      <point x="261" y="0"/>
      <point x="365" y="-1"/>
      <point x="495" y="6" type="curve" smooth="yes"/>
      <point x="539" y="9"/>
      <point x="568" y="29"/>
      <point x="587" y="56" type="curve" smooth="yes"/>
      <point x="600" y="73"/>
      <point x="608" y="90"/>
      <point x="614" y="105" type="curve"/>
    </contour>
    <contour>
      <point x="255" y="564"/>
      <point x="258" y="578"/>
      <point x="259" y="593" type="curve"/>
      <point x="201" y="575"/>
      <point x="154" y="552"/>
      <point x="118" y="524" type="curve" smooth="yes"/>
      <point x="80" y="493"/>
      <point x="57" y="458"/>
      <point x="46" y="424" type="curve"/>
      <point x="55" y="417" type="line"/>
      <point x="75" y="446"/>
      <point x="98" y="470"/>
      <point x="132" y="494" type="curve" smooth="yes"/>
      <point x="166" y="517"/>
      <point x="205" y="535"/>
      <point x="249" y="550" type="curve"/>
    </contour>
    <contour>
      <point x="99" y="538" type="move" name="top"/>
    </contour>
    <contour>
      <point x="269" y="-28" type="move" name="bottom"/>
    </contour>
  </outline>
</glyph>
<glyph name="uniFE8E.short" format="1">
  <advance width="271"/>
  <outline>
    <contour>
      <point x="210" y="112" type="line" smooth="yes"/>
      <point x="184" y="112"/>
      <point x="165" y="119"/>
      <point x="152" y="133" type="curve" smooth="yes"/>
      <point x="142" y="145"/>
      <point x="136" y="162"/>
      <point x="135" y="185" type="curve" smooth="yes"/>
      <point x="125" y="523" type="line"/>
      <point x="104" y="523" type="line"/>
      <point x="89" y="503"/>
      <point x="66" y="474"/>
      <point x="47" y="444" type="curve"/>
      <point x="57" y="375"/>
      <point x="65" y="227"/>
      <point x="67" y="153" type="curve" smooth="yes"/>
      <point x="68" y="108"/>
      <point x="78" y="70"/>
      <point x="100" y="41" type="curve" smooth="yes"/>
      <point x="120" y="14"/>
      <point x="152" y="0"/>
      <point x="192" y="0" type="curve" smooth="yes"/>
      <point x="271" y="0" type="line"/>
      <point x="271" y="112" type="line"/>
    </contour>
    <contour>
      <point x="110" y="646" type="move" name="top"/>
    </contour>
    <contour>
      <point x="91" y="-28" type="move" name="bottom"/>
    </contour>
  </outline>
</glyph>
